<svg width="48" height="49" viewBox="0 0 48 49" fill="none" xmlns="http://www.w3.org/2000/svg">
<g clip-path="url(#clip0_199_724)">
<path d="M46.5938 23.4446C47.3704 23.4446 48 22.815 48 22.0383V2.25708C48 1.48046 47.3704 0.85083 46.5938 0.85083H1.40625C0.629625 0.85083 0 1.48046 0 2.25708V22.0383C0 22.815 0.629625 23.4446 1.40625 23.4446H5.71875V26.2571H1.40625C0.629625 26.2571 0 26.8867 0 27.6633V47.4446C0 48.2212 0.629625 48.8508 1.40625 48.8508H46.5938C47.3704 48.8508 48 48.2212 48 47.4446V27.6633C48 26.8867 47.3704 26.2571 46.5938 26.2571H42.2812V23.4446H46.5938ZM2.8125 3.66333H45.1875V20.6321H2.8125V3.66333ZM14.1562 26.2571V23.4446H33.8438V26.2571H14.1562ZM8.53125 23.4446H11.3438V26.2571H8.53125V23.4446ZM45.1875 46.0383H2.8125V29.0696H45.1875V46.0383ZM39.4688 26.2571H36.6562V23.4446H39.4688V26.2571Z" fill="#1E478A"/>
<path d="M7.125 31.8821C6.34838 31.8821 5.71875 32.5117 5.71875 33.2883V41.7258C5.71875 42.5025 6.34838 43.1321 7.125 43.1321C7.90163 43.1321 8.53125 42.5025 8.53125 41.7258V33.2883C8.53125 32.5117 7.90163 31.8821 7.125 31.8821Z" fill="#1E478A"/>
<path d="M12.75 31.8821C11.9734 31.8821 11.3438 32.5117 11.3438 33.2883V41.7258C11.3438 42.5025 11.9734 43.1321 12.75 43.1321C13.5266 43.1321 14.1563 42.5025 14.1563 41.7258V33.2883C14.1563 32.5117 13.5266 31.8821 12.75 31.8821Z" fill="#1E478A"/>
<path d="M18.375 31.8821C17.5984 31.8821 16.9688 32.5117 16.9688 33.2883V41.7258C16.9688 42.5025 17.5984 43.1321 18.375 43.1321C19.1516 43.1321 19.7813 42.5025 19.7813 41.7258V33.2883C19.7813 32.5117 19.1516 31.8821 18.375 31.8821Z" fill="#1E478A"/>
<path d="M24 31.8821C23.2234 31.8821 22.5938 32.5117 22.5938 33.2883V41.7258C22.5938 42.5025 23.2234 43.1321 24 43.1321C24.7766 43.1321 25.4063 42.5025 25.4063 41.7258V33.2883C25.4063 32.5117 24.7766 31.8821 24 31.8821Z" fill="#1E478A"/>
<path d="M29.625 31.8821C28.8484 31.8821 28.2188 32.5117 28.2188 33.2883V41.7258C28.2188 42.5025 28.8484 43.1321 29.625 43.1321C30.4016 43.1321 31.0312 42.5025 31.0312 41.7258V33.2883C31.0312 32.5117 30.4016 31.8821 29.625 31.8821Z" fill="#1E478A"/>
<path d="M35.25 31.8821C34.4734 31.8821 33.8438 32.5117 33.8438 33.2883V41.7258C33.8438 42.5025 34.4734 43.1321 35.25 43.1321C36.0266 43.1321 36.6563 42.5025 36.6563 41.7258V33.2883C36.6563 32.5117 36.0266 31.8821 35.25 31.8821Z" fill="#1E478A"/>
<path d="M39.4688 33.2883V41.7258C39.4688 42.5025 40.0984 43.1321 40.875 43.1321C41.6516 43.1321 42.2813 42.5025 42.2813 41.7258V33.2883C42.2813 32.5117 41.6516 31.8821 40.875 31.8821C40.0984 31.8821 39.4688 32.5117 39.4688 33.2883Z" fill="#1E478A"/>
<path d="M8.53125 16.4133V7.97583C8.53125 7.1992 7.90163 6.56958 7.125 6.56958C6.34838 6.56958 5.71875 7.1992 5.71875 7.97583V16.4133C5.71875 17.19 6.34838 17.8196 7.125 17.8196C7.90163 17.8196 8.53125 17.19 8.53125 16.4133Z" fill="#1E478A"/>
<path d="M12.75 17.8196C13.5266 17.8196 14.1563 17.19 14.1563 16.4133V7.97583C14.1563 7.1992 13.5266 6.56958 12.75 6.56958C11.9734 6.56958 11.3438 7.1992 11.3438 7.97583V16.4133C11.3438 17.19 11.9734 17.8196 12.75 17.8196Z" fill="#1E478A"/>
<path d="M18.375 17.8196C19.1516 17.8196 19.7813 17.19 19.7813 16.4133V7.97583C19.7813 7.1992 19.1516 6.56958 18.375 6.56958C17.5984 6.56958 16.9688 7.1992 16.9688 7.97583V16.4133C16.9688 17.19 17.5984 17.8196 18.375 17.8196Z" fill="#1E478A"/>
<path d="M24 17.8196C24.7766 17.8196 25.4063 17.19 25.4063 16.4133V7.97583C25.4063 7.1992 24.7766 6.56958 24 6.56958C23.2234 6.56958 22.5938 7.1992 22.5938 7.97583V16.4133C22.5938 17.19 23.2234 17.8196 24 17.8196Z" fill="#1E478A"/>
<path d="M29.625 17.8196C30.4016 17.8196 31.0312 17.19 31.0312 16.4133V7.97583C31.0312 7.1992 30.4016 6.56958 29.625 6.56958C28.8484 6.56958 28.2188 7.1992 28.2188 7.97583V16.4133C28.2188 17.19 28.8484 17.8196 29.625 17.8196Z" fill="#1E478A"/>
<path d="M35.25 17.8196C36.0266 17.8196 36.6563 17.19 36.6563 16.4133V7.97583C36.6563 7.1992 36.0266 6.56958 35.25 6.56958C34.4734 6.56958 33.8438 7.1992 33.8438 7.97583V16.4133C33.8438 17.19 34.4734 17.8196 35.25 17.8196Z" fill="#1E478A"/>
<path d="M40.875 17.8196C41.6516 17.8196 42.2813 17.19 42.2813 16.4133V7.97583C42.2813 7.1992 41.6516 6.56958 40.875 6.56958C40.0984 6.56958 39.4688 7.1992 39.4688 7.97583V16.4133C39.4688 17.19 40.0984 17.8196 40.875 17.8196Z" fill="#1E478A"/>
</g>
<defs>
<clipPath id="clip0_199_724">
<rect width="48" height="48" fill="white" transform="translate(0 0.85083)"/>
</clipPath>
</defs>
</svg>
