<svg width="48" height="49" viewBox="0 0 48 49" fill="none" xmlns="http://www.w3.org/2000/svg">
<path d="M46.5938 41.5196H38.9626V2.25708C38.9626 1.48046 38.333 0.85083 37.5563 0.85083C36.7797 0.85083 36.1501 1.48046 36.1501 2.25708V19.6344L29.8101 5.14327C28.7569 2.73624 25.8741 0.85083 23.2469 0.85083H9.69066C6.83887 0.85083 4.51875 3.17086 4.51875 6.02264V24.9935C1.97438 25.3157 0 27.4923 0 30.1227V39.1601C0 42.012 2.32012 44.3321 5.17191 44.3321H6.195C6.82809 46.9224 9.16753 48.8508 11.95 48.8508C14.7324 48.8508 17.0717 46.9224 17.7048 44.3321H27.2826C27.9157 46.9224 30.2551 48.8508 33.0376 48.8508C35.82 48.8508 38.1593 46.9224 38.7923 44.3321H46.5938C47.3704 44.3321 48 43.7025 48 42.9258C48 42.1492 47.3704 41.5196 46.5938 41.5196ZM9.69066 3.66333H23.2469C24.7628 3.66333 26.6257 4.88171 27.2333 6.27071L35.4061 24.9509H32.1138L24.9992 17.8365L26.1351 16.7006C26.6842 16.1515 26.6842 15.261 26.1351 14.7119C25.586 14.1628 24.6955 14.1628 24.1463 14.7119L22.0165 16.8417C22.0163 16.8419 22.0162 16.842 22.0161 16.8421C22.0159 16.8423 22.0158 16.8424 22.0156 16.8426L19.8859 18.9724C19.3367 19.5215 19.3367 20.412 19.8859 20.9611C20.1605 21.2357 20.5204 21.373 20.8802 21.373C21.2401 21.373 21.6 21.2356 21.8745 20.9611L23.0103 19.8253L28.1362 24.951H13.3563V14.307C13.3563 13.5304 12.7267 12.9008 11.95 12.9008C11.1734 12.9008 10.5438 13.5304 10.5438 14.307V24.9508H7.33125V6.02264C7.33125 4.72167 8.38969 3.66333 9.69066 3.66333ZM2.8125 39.1602V30.1228C2.8125 28.8218 3.87094 27.7634 5.17191 27.7634H36.1501L36.1499 37.887C35.2447 37.3259 34.1786 37.0008 33.0376 37.0008C30.2551 37.0008 27.9157 38.9293 27.2826 41.5196H17.7048C17.0717 38.9293 14.7324 37.0008 11.95 37.0008C9.16753 37.0008 6.82809 38.9293 6.195 41.5196H5.17191C3.87094 41.5196 2.8125 40.4611 2.8125 39.1602ZM11.95 46.0383C10.2346 46.0383 8.83894 44.6433 8.83762 42.9283C8.83762 42.9273 8.83772 42.9266 8.83772 42.9258C8.83772 42.925 8.83762 42.9242 8.83762 42.9234C8.83894 41.2083 10.2346 39.8133 11.95 39.8133C13.6661 39.8133 15.0623 41.2096 15.0623 42.9258C15.0623 44.642 13.666 46.0383 11.95 46.0383ZM33.0375 46.0383C31.3212 46.0383 29.925 44.642 29.925 42.9258C29.925 41.2096 31.3213 39.8133 33.0375 39.8133C34.7536 39.8133 36.1497 41.2096 36.1497 42.9258C36.1497 44.642 34.7536 46.0383 33.0375 46.0383Z" fill="#1E478A"/>
</svg>
