<svg width="57" height="56" viewBox="0 0 57 56" fill="none" xmlns="http://www.w3.org/2000/svg">
<rect x="0.625732" width="56" height="56" rx="12" fill="#257BEB"/>
<path d="M40.0007 21.875V34.125C40.0007 34.8212 39.7242 35.4889 39.2319 35.9812C38.7396 36.4734 38.0719 36.75 37.3757 36.75H19.8757C19.1795 36.75 18.5119 36.4734 18.0196 35.9812C17.5273 35.4889 17.2507 34.8212 17.2507 34.125V21.875M40.0007 21.875C40.0007 21.1788 39.7242 20.5111 39.2319 20.0188C38.7396 19.5266 38.0719 19.25 37.3757 19.25H19.8757C19.1795 19.25 18.5119 19.5266 18.0196 20.0188C17.5273 20.5111 17.2507 21.1788 17.2507 21.875M40.0007 21.875V22.1585C40.0008 22.6067 39.8861 23.0474 39.6676 23.4387C39.4491 23.83 39.134 24.1588 38.7524 24.3938L30.0024 29.778C29.5885 30.033 29.1119 30.168 28.6257 30.168C28.1396 30.168 27.663 30.033 27.2491 29.778L18.4991 24.395C18.1175 24.16 17.8024 23.8311 17.5839 23.4398C17.3654 23.0486 17.2507 22.6078 17.2507 22.1597V21.875" stroke="white" stroke-width="1.5" stroke-linecap="round" stroke-linejoin="round"/>
</svg>
