<svg width="48" height="48" viewBox="0 0 48 48" fill="none" xmlns="http://www.w3.org/2000/svg">
<g clip-path="url(#clip0_42_2361)">
<path d="M5.51538 48C2.5432 48 0.124023 45.5808 0.124023 42.6086C0.124023 39.6365 2.5432 37.2173 5.51538 37.2173C8.48756 37.2173 10.9067 39.6365 10.9067 42.6086C10.9067 45.5808 8.48756 48 5.51538 48ZM5.51538 41.0683C4.66585 41.0683 3.97499 41.7591 3.97499 42.6086C3.97499 43.4582 4.66585 44.149 5.51538 44.149C6.3649 44.149 7.05577 43.4582 7.05577 42.6086C7.05577 41.7591 6.3649 41.0683 5.51538 41.0683Z" fill="#257BEB"/>
<path d="M31.7019 47.9999C27.0306 47.9999 23.2297 44.199 23.2297 39.5278C23.2297 34.8566 27.0306 31.0557 31.7019 31.0557C36.3731 31.0557 40.174 34.8566 40.174 39.5278C40.174 44.199 36.3731 47.9999 31.7019 47.9999ZM31.7019 34.9066C29.1533 34.9066 27.0807 36.9792 27.0807 39.5278C27.0807 42.0764 29.1533 44.149 31.7019 44.149C34.2504 44.149 36.323 42.0764 36.323 39.5278C36.323 36.9792 34.2504 34.9066 31.7019 34.9066Z" fill="#257BEB"/>
<path d="M31.7019 37.2173C30.428 37.2173 29.3914 38.254 29.3914 39.5279C29.3914 40.8018 30.428 41.8384 31.7019 41.8384C32.9758 41.8384 34.0125 40.8018 34.0125 39.5279C34.0125 38.254 32.9758 37.2173 31.7019 37.2173ZM31.7019 40.2981C31.2768 40.2981 30.9317 39.953 30.9317 39.5279C30.9317 39.1027 31.2768 38.7577 31.7019 38.7577C32.1271 38.7577 32.4721 39.1027 32.4721 39.5279C32.4721 39.953 32.1271 40.2981 31.7019 40.2981Z" fill="#F8F8FA"/>
<path d="M10.8451 43.3789C10.7666 43.9227 10.6079 44.4402 10.3792 44.9193H25.1723C24.7818 44.4472 24.4475 43.9288 24.1656 43.3789H10.8451Z" fill="#F8F8FA"/>
<path d="M9.28076 38.7578C9.73287 39.1999 10.1033 39.7213 10.3791 40.2982H23.269C23.2459 40.044 23.2297 39.7883 23.2297 39.528C23.2297 39.2677 23.2459 39.012 23.269 38.7578H9.28076Z" fill="#F8F8FA"/>
<path d="M26.3107 28.745C26.3107 26.6216 24.5831 24.8941 22.4597 24.8941H21.9729L20.8192 22.5866L25.0506 23.6564L22.7239 17.9762C24.0586 18.8419 25.0884 20.1196 25.6529 21.6539L27.03 25.4016L27.7894 23.6055C28.1976 22.6405 29.0225 21.9427 30.003 21.6831L27.9235 26.1064L29.3183 26.7626L32.4815 20.0326H30.8579C29.4685 20.0326 28.1792 20.618 27.275 21.6015L27.0986 21.1232C26.1505 18.5407 24.1087 16.5613 21.4993 15.6918L19.9073 15.1611L22.4674 21.4151L17.9379 20.2706L20.25 24.8948H10.1366C8.01319 24.8948 6.28564 26.6224 6.28564 28.7458V37.2796C6.8294 37.3581 7.34697 37.5168 7.82603 37.7455V35.6775H24.1649C24.3682 35.2809 24.6093 34.9089 24.8681 34.5508C25.2863 33.9777 25.7646 33.4501 26.3107 32.9988V28.745ZM24.7703 28.745V29.5152H23.2299V26.5762C24.1241 26.8958 24.7703 27.7422 24.7703 28.745ZM10.9068 26.4345H12.4472V29.5152H10.9068V26.4345ZM13.9876 26.4345H15.528V29.5152H13.9876V26.4345ZM17.0684 26.4345H18.6087V29.5152H17.0684V26.4345ZM20.1491 26.4345H21.6895V29.5152H20.1491V26.4345ZM9.36642 26.5769V29.516H7.82603V28.7458C7.82603 27.7422 8.47222 26.8958 9.36642 26.5769ZM7.82603 34.1364V31.0556H24.7703V34.1364H7.82603Z" fill="#F8F8FA"/>
<path d="M47.8675 27.9752C47.8683 27.577 47.7751 27.1842 47.5733 26.8322C47.1643 26.1113 46.3949 25.6638 45.5662 25.6638C45.1634 25.6638 44.7652 25.7701 44.4394 25.9581L35.4574 30.7479L43.5783 16.1288L43.9595 16.3576L46.6668 11.8466C47.5409 10.3894 47.068 8.49315 45.6116 7.61975C45.1318 7.3317 44.5834 7.1792 44.025 7.1792C42.9498 7.1792 41.937 7.75222 41.3832 8.67491L38.676 13.1859L39.6149 13.7497L29.8896 31.2562C30.4742 31.1284 31.0796 31.056 31.7019 31.056C31.7219 31.056 31.7412 31.0591 31.7612 31.0591L40.9365 14.543L42.2574 15.3363L33.4256 31.2331C33.6844 31.287 33.9386 31.3533 34.1881 31.4303C34.8173 31.6236 35.4112 31.8939 35.9696 32.2213L45.1857 27.3051C45.5377 27.1026 46.0314 27.2358 46.2355 27.5963C46.3371 27.7726 46.3625 27.979 46.3086 28.1778C46.2547 28.3765 46.1261 28.5421 45.9682 28.6329L37.3474 33.2295C37.7433 33.5845 38.1053 33.9758 38.4288 34.3994L46.3356 30.1826V39.5289C46.3356 41.6523 44.608 43.3798 42.4846 43.3798H39.239C38.9571 43.9298 38.6229 44.4481 38.2324 44.9202H42.4846C45.4568 44.9202 47.876 42.501 47.876 39.5289V27.976H47.8675V27.9752ZM42.7041 9.46821C43.1247 8.76657 44.1159 8.51703 44.8183 8.93986C45.5461 9.37656 45.7826 10.3254 45.3459 11.0533L43.432 14.2442L40.7902 12.6584L42.7041 9.46821Z" fill="#F8F8FA"/>
<path d="M5.51541 40.2979C4.24151 40.2979 3.20483 41.3345 3.20483 42.6084C3.20483 43.8823 4.24151 44.919 5.51541 44.919C6.78931 44.919 7.826 43.8823 7.826 42.6084C7.826 41.3345 6.78931 40.2979 5.51541 40.2979ZM5.51541 43.3786C5.09027 43.3786 4.74522 43.0336 4.74522 42.6084C4.74522 42.1833 5.09027 41.8382 5.51541 41.8382C5.94056 41.8382 6.28561 42.1833 6.28561 42.6084C6.28561 43.0336 5.94056 43.3786 5.51541 43.3786Z" fill="#F8F8FA"/>
<path d="M31.7019 34.1367C28.7297 34.1367 26.3105 36.5559 26.3105 39.5281C26.3105 42.5003 28.7297 44.9194 31.7019 44.9194C34.6741 44.9194 37.0933 42.5003 37.0933 39.5281C37.0933 36.5559 34.6741 34.1367 31.7019 34.1367ZM31.7019 43.379C29.5785 43.379 27.8509 41.6515 27.8509 39.5281C27.8509 37.4047 29.5785 35.6771 31.7019 35.6771C33.8253 35.6771 35.5529 37.4047 35.5529 39.5281C35.5529 41.6515 33.8253 43.379 31.7019 43.379Z" fill="#F8F8FA"/>
<path d="M4.82607 19.8481L6.20395 19.1588L4.06358 14.8772L9.15764 17.0607L6.10151 8.65639C7.89376 9.75546 9.20693 11.5539 9.67136 13.6426L10.5186 17.4535L11.5237 16.1149C12.5088 14.8018 13.9352 13.8883 15.5102 13.5217L11.8071 19.0763L13.0887 19.9305L18.5078 11.8011H17.0683C14.9395 11.8011 12.8869 12.6175 11.3373 14.0362L11.1755 13.3084C10.4647 10.1128 8.09478 7.48416 4.98936 6.44979L3.4767 5.94531L6.49431 14.2434L0.805664 11.8057L4.82607 19.8481Z" fill="#F8F8FA"/>
<path d="M21.7704 13.6863L23.1483 12.997L21.0079 8.71551L26.3993 11.0261L23.4671 5.16261C22.9896 4.20834 22.8256 3.1524 22.9827 2.11803C24.7418 3.09541 26.0157 4.78213 26.4578 6.77539L27.4621 11.2918L28.4672 9.95321C29.4523 8.64003 30.8787 7.72658 32.4538 7.35997L28.7507 12.9146L30.0323 13.7688L35.4514 5.63936H34.0126C33.1015 5.63936 32.2073 5.79725 31.357 6.07991C31.2584 3.06075 29.0711 1.9224 28.9656 1.87003L28.4087 1.59199L26.7797 3.62761C25.8232 2.14961 24.4268 0.975835 22.7447 0.303456L21.9868 0L21.728 0.774815C21.1666 2.46 21.2952 4.26302 22.09 5.85193L23.1414 7.95456L17.75 5.64398L21.7704 13.6863ZM28.7622 3.61606C29.2644 4.09281 29.9375 5.07943 29.7912 6.78155C29.2528 7.09117 28.743 7.45316 28.2816 7.87523L27.9628 6.44113C27.8626 5.98979 27.7155 5.55695 27.5476 5.13411L28.7622 3.61606Z" fill="#F8F8FA"/>
</g>
<defs>
<clipPath id="clip0_42_2361">
<rect width="48" height="48" fill="white"/>
</clipPath>
</defs>
</svg>
