<svg width="48" height="48" viewBox="0 0 48 48" fill="none" xmlns="http://www.w3.org/2000/svg">
<path d="M24.0001 40.258C17.5968 40.258 12.3872 35.0485 12.3872 28.6451C12.3872 22.2418 17.5968 17.0322 24.0001 17.0322C30.4035 17.0322 35.613 22.2418 35.613 28.6451C35.613 35.0485 30.4035 40.258 24.0001 40.258Z" fill="#257BEB"/>
<path d="M39.484 0H8.51623C6.38178 0 4.64526 1.73652 4.64526 3.87097V44.129C4.64526 46.2635 6.38178 48 8.51623 48H39.484C41.6184 48 43.3549 46.2635 43.3549 44.129V3.87097C43.3549 1.73652 41.6184 0 39.484 0ZM8.51623 1.54839H39.484C40.7645 1.54839 41.8066 2.59045 41.8066 3.87097V4.64516H6.19365V3.87097C6.19365 2.59045 7.23572 1.54839 8.51623 1.54839ZM6.19365 13.9355V6.19355H24.7743V13.9355H6.19365ZM26.3227 6.19355H41.8066V13.9355H26.3227V6.19355ZM39.484 46.4516H8.51623C7.23572 46.4516 6.19365 45.4095 6.19365 44.129V43.3548H37.1614V41.8064H6.19365V15.4839H41.8066V41.8064H38.7098V43.3548H41.8066V44.129C41.8066 45.4095 40.7645 46.4516 39.484 46.4516Z" fill="#F8F8FA"/>
<path d="M7.74194 12.3869H17.0323V7.7417H7.74194V12.3869ZM9.29033 9.29009H15.4839V10.8385H9.29033V9.29009Z" fill="#F8F8FA"/>
<path d="M20.9031 7.7417C19.6226 7.7417 18.5806 8.78376 18.5806 10.0643C18.5806 11.3448 19.6226 12.3869 20.9031 12.3869C22.1837 12.3869 23.2257 11.3448 23.2257 10.0643C23.2257 8.78376 22.1837 7.7417 20.9031 7.7417ZM20.9031 10.8385C20.4758 10.8385 20.129 10.4916 20.129 10.0643C20.129 9.63692 20.4758 9.29009 20.9031 9.29009C21.3305 9.29009 21.6773 9.63692 21.6773 10.0643C21.6773 10.4916 21.3305 10.8385 20.9031 10.8385Z" fill="#F8F8FA"/>
<path d="M39.484 7.7417H28.6453V9.29009H39.484V7.7417Z" fill="#F8F8FA"/>
<path d="M24 20.1289C19.3045 20.1289 15.4839 23.9496 15.4839 28.645C15.4839 33.3405 19.3045 37.1612 24 37.1612C28.6955 37.1612 32.5161 33.3405 32.5161 28.645C32.5161 23.9496 28.6955 20.1289 24 20.1289ZM24 21.6773C26.8289 21.6773 29.2638 23.3743 30.3546 25.8006L27.2896 27.8445C26.5038 28.3686 25.5894 28.645 24.6441 28.645C22.5275 28.645 20.5618 29.6964 19.3874 31.4585L18.4583 32.852C17.568 31.6814 17.0323 30.2259 17.0323 28.645C17.0323 24.8027 20.1577 21.6773 24 21.6773ZM24 35.6128C22.31 35.6128 20.7592 35.0074 19.5523 34.0032L20.6756 32.317C21.5629 30.987 23.0462 30.1934 24.6441 30.1934C25.896 30.1934 27.1084 29.8265 28.1481 29.1328L30.84 27.3382C30.9213 27.7617 30.9678 28.1976 30.9678 28.645C30.9678 32.4874 27.8423 35.6128 24 35.6128Z" fill="#F8F8FA"/>
<path d="M39.4839 10.8389H37.9355V12.3873H39.4839V10.8389Z" fill="#F8F8FA"/>
<path d="M36.387 10.8389H34.8386V12.3873H36.387V10.8389Z" fill="#F8F8FA"/>
<path d="M33.2903 10.8389H31.7419V12.3873H33.2903V10.8389Z" fill="#F8F8FA"/>
<path d="M30.1937 10.8389H28.6453V12.3873H30.1937V10.8389Z" fill="#F8F8FA"/>
</svg>
