<svg width="48" height="48" viewBox="0 0 48 48" fill="none" xmlns="http://www.w3.org/2000/svg">
<g clip-path="url(#clip0_42_3207)">
<path d="M39 35.25H31.5V28.5H39V35.25Z" fill="#257BEB"/>
<path d="M16.5 35.25H9V28.5H16.5V35.25Z" fill="#257BEB"/>
<path d="M27 22.5H33V26.25H27V22.5Z" fill="#257BEB"/>
<path d="M15.75 40.5H21.75V44.25H15.75V40.5Z" fill="#257BEB"/>
<path d="M38.25 40.5H44.25V44.25H38.25V40.5Z" fill="#257BEB"/>
<path d="M3.75 39.75C3.75 40.7265 4.37925 41.5515 5.25 41.862V43.5H3.75V45H8.25V43.5H6.75V41.862C7.62075 41.5515 8.25 40.7265 8.25 39.75V37.5H3.75V39.75ZM5.25 39H6.75V39.75C6.75 40.164 6.414 40.5 6 40.5C5.586 40.5 5.25 40.164 5.25 39.75V39Z" fill="#F8F8FA"/>
<path d="M20.25 42.75H21.75V44.25H20.25V42.75Z" fill="#F8F8FA"/>
<path d="M15.75 42.75H18.75V44.25H15.75V42.75Z" fill="#F8F8FA"/>
<path d="M15.75 39.75H21.75V41.25H15.75V39.75Z" fill="#F8F8FA"/>
<path d="M36 27.75V11.439L41.5298 2.96472L37.8375 0.449219L31.7685 9.74997H16.2315L10.1625 0.449219L6.47025 2.96472L12 11.439V27.75H0.75V47.25H23.25H24.75H47.25V27.75H36ZM38.2583 2.55072L39.4702 3.37647L35.3108 9.74997H33.5602L38.2583 2.55072ZM9.74175 2.55072L14.4398 9.74997H12.6893L8.52975 3.37572L9.74175 2.55072ZM13.5 11.25H34.5V27.75H24.75H23.25H13.5V11.25ZM23.25 45.75H2.25V29.25H12H23.25V45.75ZM45.75 45.75H24.75V29.25H36H45.75V45.75Z" fill="#F8F8FA"/>
<path d="M26.25 39.75C26.25 40.7265 26.8792 41.5515 27.75 41.862V43.5H26.25V45H30.75V43.5H29.25V41.862C30.1207 41.5515 30.75 40.7265 30.75 39.75V37.5H26.25V39.75ZM27.75 39H29.25V39.75C29.25 40.164 28.914 40.5 28.5 40.5C28.086 40.5 27.75 40.164 27.75 39.75V39Z" fill="#F8F8FA"/>
<path d="M42.75 42.75H44.25V44.25H42.75V42.75Z" fill="#F8F8FA"/>
<path d="M38.25 42.75H41.25V44.25H38.25V42.75Z" fill="#F8F8FA"/>
<path d="M38.25 39.75H44.25V41.25H38.25V39.75Z" fill="#F8F8FA"/>
<path d="M15 21.75C15 22.7265 15.6292 23.5515 16.5 23.862V25.5H15V27H19.5V25.5H18V23.862C18.8707 23.5515 19.5 22.7265 19.5 21.75V19.5H15V21.75ZM16.5 21H18V21.75C18 22.1632 17.664 22.5 17.25 22.5C16.836 22.5 16.5 22.1632 16.5 21.75V21Z" fill="#F8F8FA"/>
<path d="M31.5 24.75H33V26.25H31.5V24.75Z" fill="#F8F8FA"/>
<path d="M27 24.75H30V26.25H27V24.75Z" fill="#F8F8FA"/>
<path d="M27 21.75H33V23.25H27V21.75Z" fill="#F8F8FA"/>
</g>
<defs>
<clipPath id="clip0_42_3207">
<rect width="48" height="48" fill="white"/>
</clipPath>
</defs>
</svg>
