<svg width="48" height="48" viewBox="0 0 48 48" fill="none" xmlns="http://www.w3.org/2000/svg">
<g clip-path="url(#clip0_42_3180)">
<path d="M43.3549 38.7095H29.4194V6.19336H43.3549V38.7095Z" fill="#257BEB"/>
<path d="M48 3.09677V1.54839C48 0.694645 47.3054 0 46.4516 0H1.54839C0.694645 0 0 0.694645 0 1.54839V3.09677C0 3.95052 0.694645 4.64516 1.54839 4.64516V40.2581C0.694645 40.2581 0 40.9527 0 41.8064V43.3548C0 44.2086 0.694645 44.9032 1.54839 44.9032H3.09677V45.6774C3.09677 46.958 4.13865 48 5.41935 48H42.5806C43.8614 48 44.9032 46.958 44.9032 45.6774V44.9032H46.4516C47.3054 44.9032 48 44.2086 48 43.3548V41.8064C48 40.9527 47.3054 40.2581 46.4516 40.2581V4.64516C47.3054 4.64516 48 3.95052 48 3.09677ZM1.54839 1.54839H46.4516L46.4526 3.09677C46.4526 3.09677 46.4523 3.09677 46.4516 3.09677H1.54839V1.54839ZM24.7742 40.2581V32.5161H26.3226V40.2581H24.7742ZM23.2258 32.5161V40.2581H6.19355V32.5161H23.2258ZM26.3226 30.9677H15.4839V4.64516H26.3226V30.9677ZM13.9355 4.64516V30.9677H3.09677V4.64516H13.9355ZM3.09677 32.5161H4.64516V40.2581H3.09677V32.5161ZM43.3548 45.6774C43.3548 46.1043 43.0075 46.4516 42.5806 46.4516H5.41935C4.99248 46.4516 4.64516 46.1043 4.64516 45.6774V44.9032H43.3548V45.6774ZM46.4526 43.3548C46.4526 43.3548 46.4523 43.3548 46.4516 43.3548H1.54839V41.8064H46.4516L46.4526 43.3548ZM44.9032 40.2581H27.871V4.64516H44.9032V40.2581Z" fill="#F8F8FA"/>
<path d="M14.7098 38.7096C15.9905 38.7096 17.0324 37.6676 17.0324 36.387C17.0324 35.1064 15.9905 34.0645 14.7098 34.0645C13.4291 34.0645 12.3872 35.1064 12.3872 36.387C12.3872 37.6676 13.4291 38.7096 14.7098 38.7096ZM14.7098 35.6128C15.1367 35.6128 15.484 35.9602 15.484 36.387C15.484 36.8139 15.1367 37.1612 14.7098 37.1612C14.2829 37.1612 13.9356 36.8139 13.9356 36.387C13.9356 35.9602 14.2829 35.6128 14.7098 35.6128Z" fill="#F8F8FA"/>
<path d="M17.0322 15.4839H18.5806V20.129H17.0322V15.4839Z" fill="#F8F8FA"/>
<path d="M10.8386 15.4839H12.387V20.129H10.8386V15.4839Z" fill="#F8F8FA"/>
</g>
<defs>
<clipPath id="clip0_42_3180">
<rect width="48" height="48" fill="white"/>
</clipPath>
</defs>
</svg>
