<svg width="48" height="48" viewBox="0 0 48 48" fill="none" xmlns="http://www.w3.org/2000/svg">
<g clip-path="url(#clip0_42_2710)">
<path d="M40.2581 3.48398H37.9355V2.70979C37.9355 1.42677 38.9751 0.387207 40.2581 0.387207H42.5807V1.1614C42.5807 2.44441 41.5411 3.48398 40.2581 3.48398Z" fill="#257BEB"/>
<path d="M35.6129 6.58066H37.9354V5.80647C37.9354 4.52345 36.8959 3.48389 35.6129 3.48389H33.2903V4.25808C33.2903 5.54109 34.3298 6.58066 35.6129 6.58066Z" fill="#257BEB"/>
<path d="M9.89482 47.6127H4.04074L3.11987 43.9292L4.62214 43.5542L5.24966 46.0643H8.6859L9.31342 43.5542L10.8157 43.9292L9.89482 47.6127Z" fill="#F8F8FA"/>
<path d="M43.9593 47.6127H38.1052L37.1843 43.9292L38.6866 43.5542L39.3141 46.0643H42.7504L43.3779 43.5542L44.8801 43.9292L43.9593 47.6127Z" fill="#F8F8FA"/>
<path d="M41.7119 11.5849L41.0322 10.9053V8.90324H39.4838V3.48389H37.9354V8.90324H36.387V10.9053L35.7073 11.5849C35.1467 12.1456 34.8386 12.8895 34.8386 13.6807C34.8386 15.316 36.1678 16.6452 37.8031 16.6452H39.6168C41.2514 16.6452 42.5806 15.316 42.5806 13.6807C42.5806 12.8895 42.2725 12.1456 41.7119 11.5849ZM39.6161 15.0968H37.8023C37.0217 15.0968 36.387 14.4621 36.387 13.6807C36.387 13.3031 36.5341 12.9477 36.8021 12.6797L37.9354 11.5464V10.4516H39.4838V11.5464L40.6171 12.6797C40.8851 12.9477 41.0322 13.3031 41.0322 13.6807C41.0322 14.4621 40.3975 15.0968 39.6161 15.0968Z" fill="#F8F8FA"/>
<path d="M3.09668 16.645H4.64507V2.70952H15.4838V16.645H17.0322V1.16113H3.09668V16.645Z" fill="#F8F8FA"/>
<path d="M6.1936 13.5486H13.9355V4.2583H6.1936V13.5486ZM7.74199 5.80669H12.3872V12.0002H7.74199V5.80669Z" fill="#F8F8FA"/>
<path d="M28.6451 2.70947H18.5806V10.4514H19.3748C18.8834 11.1001 18.5806 11.8992 18.5806 12.774C18.5806 14.9083 20.3172 16.645 22.4515 16.645H32.5161V8.90302H31.7218C32.2133 8.25433 32.5161 7.45519 32.5161 6.58044C32.5161 4.44612 30.7794 2.70947 28.6451 2.70947ZM20.129 4.25786H28.6451C29.9255 4.25786 30.9677 5.30007 30.9677 6.58044C30.9677 7.86081 29.9255 8.90302 28.6451 8.90302H20.129V4.25786ZM30.9677 15.0966H22.4515C21.1712 15.0966 20.129 14.0544 20.129 12.774C20.129 11.4936 21.1712 10.4514 22.4515 10.4514H30.9677V15.0966Z" fill="#F8F8FA"/>
<path d="M44.9033 18.9678V29.8065C44.9033 30.2337 44.5555 30.5807 44.1291 30.5807H37.9356C36.6552 30.5807 35.613 31.6229 35.613 32.9033C35.613 34.1836 36.6552 35.2258 37.9356 35.2258C38.362 35.2258 38.7098 35.5729 38.7098 36C38.7098 36.4272 38.362 36.7742 37.9356 36.7742H30.9678V34.4516H29.4195V36.7742H27.8711V18.9678H26.3227V21.2904H18.5807V18.9678H17.0324V27.4839H12.3872V18.9678H10.8388V27.4839H6.19365V18.9678H4.64526V41.4194H6.19365V40.6252C6.84234 41.1166 7.64148 41.4194 8.51623 41.4194H20.1291V33.6775H8.51623C7.64148 33.6775 6.84234 33.9802 6.19365 34.4717V32.1291H26.3227V38.3226H37.9356C39.216 38.3226 40.2582 37.2804 40.2582 36V32.1291H41.8066V41.4194H43.3549V32.1291H44.1291C44.4017 32.1291 44.6603 32.0735 44.9033 31.9865V41.4194H46.4517V18.9678H44.9033ZM18.5807 22.8387H26.3227V27.4839H18.5807V22.8387ZM8.51623 35.2258H18.5807V39.871H8.51623C7.23586 39.871 6.19365 38.8288 6.19365 37.5484C6.19365 36.2681 7.23586 35.2258 8.51623 35.2258ZM6.19365 30.5807V29.0323H26.3227V30.5807H6.19365ZM38.7098 33.82C38.4667 33.733 38.2081 33.6775 37.9356 33.6775C37.5092 33.6775 37.1614 33.3304 37.1614 32.9033C37.1614 32.4761 37.5092 32.1291 37.9356 32.1291H38.7098V33.82Z" fill="#F8F8FA"/>
<path d="M37.1614 27.4839H38.7098V29.0323H37.1614V27.4839Z" fill="#F8F8FA"/>
<path d="M37.1614 21.2905H38.7098V25.9357H37.1614V21.2905Z" fill="#F8F8FA"/>
<path d="M29.4194 21.2905H30.9678V32.9034H29.4194V21.2905Z" fill="#F8F8FA"/>
<path d="M1.54834 18.9678H3.09673V41.4194H1.54834V18.9678Z" fill="#F8F8FA"/>
<path d="M7.74194 21.2905H9.29033V22.8389H7.74194V21.2905Z" fill="#F8F8FA"/>
<path d="M7.74194 24.3872H9.29033V25.9356H7.74194V24.3872Z" fill="#F8F8FA"/>
<path d="M13.9355 21.2905H15.4839V22.8389H13.9355V21.2905Z" fill="#F8F8FA"/>
<path d="M13.9355 24.3872H15.4839V25.9356H13.9355V24.3872Z" fill="#F8F8FA"/>
<path d="M20.1292 24.3872H21.6775V25.9356H20.1292V24.3872Z" fill="#F8F8FA"/>
<path d="M23.2258 24.3872H24.7742V25.9356H23.2258V24.3872Z" fill="#F8F8FA"/>
<path d="M48 19.7418H0V16.645H48V19.7418Z" fill="#257BEB"/>
<path d="M48 44.5162H0V41.4194H48V44.5162Z" fill="#257BEB"/>
</g>
<defs>
<clipPath id="clip0_42_2710">
<rect width="48" height="48" fill="white"/>
</clipPath>
</defs>
</svg>
