<svg width="48" height="48" viewBox="0 0 48 48" fill="none" xmlns="http://www.w3.org/2000/svg">
<g clip-path="url(#clip0_42_3194)">
<path d="M15.484 30.968C13.7764 30.968 12.3872 29.5788 12.3872 27.8712C12.3872 26.1636 13.7764 24.7744 15.484 24.7744C17.1916 24.7744 18.5808 26.1636 18.5808 27.8712C18.5808 29.5788 17.1916 30.968 15.484 30.968Z" fill="#257BEB"/>
<path d="M0 47.9999H24.7742V18.5806H0V47.9999ZM4.64516 37.1703C9.28065 37.3295 13.625 39.6403 16.3603 43.3548H4.64516V37.1703ZM18.2364 43.3548C17.0365 41.4707 15.4665 39.8436 13.6329 38.5762C15.3841 36.8631 17.6828 35.8242 20.129 35.6423V43.3548H18.2364ZM20.129 34.0905C17.1503 34.2831 14.3537 35.5812 12.285 37.7364C9.94732 36.431 7.31865 35.7037 4.64516 35.6211V23.2257H20.129V34.0905ZM4.19168 44.9031H20.5824L22.1308 46.4515H2.64329L4.19168 44.9031ZM21.6774 43.8082V22.7722L23.2258 21.2239V45.3565L21.6774 43.8082ZM20.5825 21.6773H4.19168L2.64329 20.129H22.1308L20.5825 21.6773ZM3.09677 22.7722V43.8081L1.54839 45.3565V21.2239L3.09677 22.7722Z" fill="#F8F8FA"/>
<path d="M23.2258 0H1.54834V17.0323H23.2258V0ZM19.0341 3.09677H5.74002L4.19163 1.54839H20.5824L19.0341 3.09677ZM18.5806 4.64516V12.3871H6.1935V4.64516H18.5806ZM4.64511 4.19168V12.8405L3.09673 14.3889V2.64329L4.64511 4.19168ZM5.74002 13.9355H19.034L20.5824 15.4839H4.19163L5.74002 13.9355ZM20.129 12.8406V4.19168L21.6774 2.64329V14.3889L20.129 12.8406Z" fill="#F8F8FA"/>
<path d="M29.4194 48H48.0001V30.9678H29.4194V48ZM33.6111 44.9033H43.8083L45.3567 46.4516H32.0627L33.6111 44.9033ZM34.0646 43.3549V35.6129H43.3549V43.3549H34.0646ZM44.9033 43.8084V35.1595L46.4517 33.6112V45.3567L44.9033 43.8084ZM43.8084 34.0645H33.6111L32.0627 32.5162H45.3567L43.8084 34.0645ZM32.5162 35.1595V43.8083L30.9678 45.3566V33.6111L32.5162 35.1595Z" fill="#F8F8FA"/>
<path d="M26.3225 0V29.4194H47.9999V0H26.3225ZM43.3548 21.4425C42.7859 21.1028 42.0732 21.0655 41.4601 21.3721C41.2958 21.4544 41.0977 21.4224 40.9676 21.2922L40.8804 21.205C40.1102 20.4349 38.8575 20.4349 38.0873 21.205L38.0001 21.2922C37.9801 21.3121 37.9583 21.3289 37.9355 21.3442V16.9665C40.1295 16.5968 41.8065 14.6846 41.8065 12.3871C41.8065 9.89313 39.856 6.19355 37.1613 6.19355C34.4666 6.19355 32.5162 9.89313 32.5162 12.3871C32.5162 14.6845 34.1932 16.5967 36.3871 16.9665V21.0018C36.1473 20.9907 35.9051 21.0221 35.6704 21.1002L34.5237 21.4824C34.3696 21.5338 34.2022 21.4943 34.0872 21.3794L33.7597 21.0519C33.0962 20.3886 32.0482 20.2846 31.2675 20.8052L30.9677 21.005V4.64516H43.3548V21.4425ZM36.387 15.3858C35.0529 15.0411 34.0644 13.8274 34.0644 12.3871C34.0644 10.4683 35.6661 7.74194 37.1612 7.74194C38.6564 7.74194 40.258 10.4683 40.258 12.3871C40.258 13.8274 39.2695 15.0412 37.9354 15.3858V10.8387H36.387V15.3858ZM30.9677 22.8659L32.1263 22.0935C32.2949 21.9811 32.5215 22.0035 32.6647 22.1469L32.9922 22.4744C33.5247 23.0068 34.2992 23.1895 35.0135 22.9515L36.1599 22.5693C36.2679 22.5334 36.3837 22.5415 36.4857 22.5924L36.815 22.757C37.5767 23.138 38.4929 22.9891 39.095 22.3872L39.1822 22.3C39.3485 22.1334 39.6192 22.1334 39.7854 22.3L39.8726 22.3872C40.4749 22.9892 41.3908 23.138 42.1526 22.757C42.3171 22.675 42.5152 22.7068 42.6451 22.837L43.3548 23.5466V24.7742H30.9677V22.8659ZM43.8083 3.09677H30.5142L28.9658 1.54839H45.3565L43.8083 3.09677ZM29.4193 4.19168V25.2276L27.8709 26.776V2.64329L29.4193 4.19168ZM30.5142 26.3226H43.8082L45.3565 27.871H28.9658L30.5142 26.3226ZM44.9032 25.2277V4.19168L46.4515 2.64329V26.776L44.9032 25.2277Z" fill="#F8F8FA"/>
</g>
<defs>
<clipPath id="clip0_42_3194">
<rect width="48" height="48" fill="white"/>
</clipPath>
</defs>
</svg>
