<svg width="57" height="57" viewBox="0 0 57 57" fill="none" xmlns="http://www.w3.org/2000/svg">
<rect x="0.5" y="0.5" width="56" height="56" rx="12" fill="#257BEB"/>
<path d="M32 26.75C32 27.6783 31.6313 28.5685 30.9749 29.2249C30.3185 29.8813 29.4283 30.25 28.5 30.25C27.5717 30.25 26.6815 29.8813 26.0251 29.2249C25.3687 28.5685 25 27.6783 25 26.75C25 25.8217 25.3687 24.9315 26.0251 24.2751C26.6815 23.6187 27.5717 23.25 28.5 23.25C29.4283 23.25 30.3185 23.6187 30.9749 24.2751C31.6313 24.9315 32 25.8217 32 26.75V26.75Z" stroke="white" stroke-width="1.5" stroke-linecap="round" stroke-linejoin="round"/>
<path d="M37.25 26.75C37.25 35.0823 28.5 39.875 28.5 39.875C28.5 39.875 19.75 35.0823 19.75 26.75C19.75 24.4294 20.6719 22.2038 22.3128 20.5628C23.9538 18.9219 26.1794 18 28.5 18C30.8206 18 33.0462 18.9219 34.6872 20.5628C36.3281 22.2038 37.25 24.4294 37.25 26.75V26.75Z" stroke="white" stroke-width="1.5" stroke-linecap="round" stroke-linejoin="round"/>
</svg>
