<svg width="1440" height="300" viewBox="0 0 1440 300" fill="none" xmlns="http://www.w3.org/2000/svg">
<g clip-path="url(#clip0_336_5984)">
<path d="M1440 0H0V300H1440V0Z" fill="#BFE3FE"/>
<path d="M952.338 -508.856L1026.18 -477.068L1138.07 -453.644L1210.95 -444.968L1358.07 -399.298L1464.45 -212.873L1509.7 -110.082L1479.36 87.6224" stroke="white" stroke-linecap="round" stroke-linejoin="round"/>
<path d="M801.779 -147.804L831.554 -122.748L910.34 -98.5256L952.312 -66.911L1158.72 6.24336L1178.22 13.0799L1221.72 101.087L1224.96 160.881L1279.61 287.86" stroke="white" stroke-linecap="round" stroke-linejoin="round"/>
<path d="M768.621 -91.4463L942.413 -19.1595L1023.6 19.257L1119.7 82.4862V185L1154.51 260.375" stroke="white" stroke-linecap="round" stroke-linejoin="round"/>
<path d="M768.621 -41.4736L895.981 20.5063" stroke="white" stroke-linecap="round" stroke-linejoin="round"/>
<path d="M827.588 -66.9111L782.293 -5.52114L821.642 16.1684" stroke="white" stroke-linecap="round" stroke-linejoin="round"/>
<path d="M879.148 -45.8115L768.621 81.4451L828.301 53.8214" stroke="white" stroke-linecap="round" stroke-linejoin="round"/>
<path d="M855.702 111.637L815.697 27.2388" stroke="white" stroke-linecap="round" stroke-linejoin="round"/>
<path d="M855.761 -18.8472L1008.83 55.2095L1002.58 71.9711L1072.1 94.0771" stroke="white" stroke-linecap="round" stroke-linejoin="round"/>
<path d="M1090.81 63.4688L1026.41 165.774" stroke="white" stroke-linecap="round" stroke-linejoin="round"/>
<path d="M996.783 6.52148L944.229 140.962" stroke="white" stroke-linecap="round" stroke-linejoin="round"/>
<path d="M927.551 81.4448L902.717 127.461" stroke="white" stroke-linecap="round" stroke-linejoin="round"/>
<path d="M975.448 60.8664L930.677 46.7769" stroke="white" stroke-linecap="round" stroke-linejoin="round"/>
<path d="M1002.52 94.0771L975.455 152.864" stroke="white" stroke-linecap="round" stroke-linejoin="round"/>
<path d="M1032.44 81.4448L996.759 155.64" stroke="white" stroke-linecap="round" stroke-linejoin="round"/>
<path d="M895.943 73.7412L876.094 118.543" stroke="white" stroke-linecap="round" stroke-linejoin="round"/>
<path d="M1030.01 -39.3916L1007.41 11.5874" stroke="white" stroke-linecap="round" stroke-linejoin="round"/>
<path d="M1030.04 23.4562L1045.61 -5.521L1075.82 3.77944" stroke="white" stroke-linecap="round" stroke-linejoin="round"/>
<path d="M1072.04 51.1491L1075.75 23.4559H1154.06L1158.74 6.24316" stroke="white" stroke-linecap="round" stroke-linejoin="round"/>
<path d="M1119.72 82.4867V23.4565" stroke="white" stroke-linecap="round" stroke-linejoin="round"/>
<path d="M1075.79 46.7769L1206.12 69.438" stroke="white" stroke-linecap="round" stroke-linejoin="round"/>
<path d="M1119.72 91.162L1221.77 101.087L1424.29 53.8213L1498 99.0743" stroke="white" stroke-linecap="round" stroke-linejoin="round"/>
<path d="M1404.09 117.537L1336.85 37.268V-2.43245L1382.14 -46.7138L1390.06 -155.474" stroke="white" stroke-linecap="round" stroke-linejoin="round"/>
<path d="M1331.16 75.5454L1356.3 128.121L1471.15 186.943L1634.41 244.932L1834.96 297.646" stroke="white" stroke-linecap="round" stroke-linejoin="round"/>
<path d="M1327.85 134.819L1297.03 40.4258" stroke="white" stroke-linecap="round" stroke-linejoin="round"/>
<path d="M1257.3 -5.52083L1075.77 -73.088L1045.56 -76.8359L1026.41 -64.4122L1248.56 11.5878" stroke="white" stroke-linecap="round" stroke-linejoin="round"/>
<path d="M1498.87 -39.3915L1382.13 -46.7139L1371.94 34.4223" stroke="white" stroke-linecap="round" stroke-linejoin="round"/>
<path d="M1487.77 33.2771L1374.97 16.1685" stroke="white" stroke-linecap="round" stroke-linejoin="round"/>
<path d="M1224.99 3.53613L1201.9 60.8658L1267.31 42.8201L1371.93 34.422L1424.27 53.8211" stroke="white" stroke-linecap="round" stroke-linejoin="round"/>
<path d="M690.598 -25.3711L668.649 46.7769" stroke="white" stroke-linecap="round" stroke-linejoin="round"/>
<path d="M734.91 -212.248L603.44 -296.889L568.419 -275.061L515.909 -191.565L570.867 -130.591L349.331 40.7384L107.463 105.668L-8.57339 143.425L-71.9258 178.094L-28.1169 225.429" stroke="white" stroke-linecap="round" stroke-linejoin="round"/>
<path d="M-373.287 275.436L-289.648 194.3L-265.47 165.427L-216.589 108.791L-16.1264 -35.7475L283.978 -244.904L514.783 -473.806" stroke="white" stroke-linecap="round" stroke-linejoin="round"/>
<path d="M196.14 176.983L156.922 81.4453L37.2998 -66.911L-2.57422 -93.3548L68.7792 -158.84L183.985 -314.484L251.71 -405.718L311.696 -503.686" stroke="white" stroke-linecap="round" stroke-linejoin="round"/>
<path d="M607.069 35.8803L604.052 -25.3709L543.41 -79.2649L528.851 -105.015L497.634 -125.108" stroke="white" stroke-linecap="round" stroke-linejoin="round"/>
<path d="M8.6792 -309.486L252.208 -145.236L409.518 -5.76381L497.66 101.955" stroke="white" stroke-linecap="round" stroke-linejoin="round"/>
<path d="M435.704 119.272L392.945 7.07617" stroke="white" stroke-linecap="round" stroke-linejoin="round"/>
<path d="M417.608 123.957L365.23 28.4536" stroke="white" stroke-linecap="round" stroke-linejoin="round"/>
<path d="M378.639 18.0423L266.013 -78.5368L154.479 -154.71L95.0619 -194.445L-19.8818 -275.061" stroke="white" stroke-linecap="round" stroke-linejoin="round"/>
<path d="M-48.0825 -242.579L68.7412 -158.84L226.488 -40.5365L316.554 49.553" stroke="white" stroke-linecap="round" stroke-linejoin="round"/>
<path d="M373.673 135.027L265.856 63.1918L68.8031 -95.0549L29.4976 -122.748" stroke="white" stroke-linecap="round" stroke-linejoin="round"/>
<path d="M182.253 -73.6782L93.2803 2.63411" stroke="white" stroke-linecap="round" stroke-linejoin="round"/>
<path d="M373.552 -174.213L292.23 -109.63L265.997 -78.5362L226.429 -40.5361L186.948 -0.106895L99.3306 49.5534" stroke="white" stroke-linecap="round" stroke-linejoin="round"/>
<path d="M222.52 28.4536L186.712 56.1121L201.49 80.4043" stroke="white" stroke-linecap="round" stroke-linejoin="round"/>
<path d="M217.211 76.2051L252.101 164.074" stroke="white" stroke-linecap="round" stroke-linejoin="round"/>
<path d="M280.633 73.0122L310.057 150.47L381.717 257.217L417.7 339.88" stroke="white" stroke-linecap="round" stroke-linejoin="round"/>
<path d="M280.633 13.5311L334.979 -19.4717" stroke="white" stroke-linecap="round" stroke-linejoin="round"/>
<path d="M311.734 93.7649L391.482 76.2051" stroke="white" stroke-linecap="round" stroke-linejoin="round"/>
<path d="M343.103 114.691L334.971 88.6289" stroke="white" stroke-linecap="round" stroke-linejoin="round"/>
<path d="M520.468 -29.2231L479.239 -0.419453L531.879 -5.52083L581.328 -44.5967" stroke="white" stroke-linecap="round" stroke-linejoin="round"/>
<path d="M492.55 35.8798L531.9 6.13916L560.581 28.4533L586.508 6.13916L606.051 16.1684" stroke="white" stroke-linecap="round" stroke-linejoin="round"/>
<path d="M70.6805 117.641L-39.8473 -18.7081L-160.519 -134.513L-153.917 -66.9109L-111.944 33.2773" stroke="white" stroke-linecap="round" stroke-linejoin="round"/>
<path d="M29.2443 131.14L-80.6277 10.7203L-138.34 -58.5473L-220.886 -111.088L-315.193 -165.329" stroke="white" stroke-linecap="round" stroke-linejoin="round"/>
<path d="M36.8358 22.5542L8.6792 41.051" stroke="white" stroke-linecap="round" stroke-linejoin="round"/>
<path d="M70.678 61.6641L40.5103 80.4385" stroke="white" stroke-linecap="round" stroke-linejoin="round"/>
<path d="M-8.5083 143.425L43.8263 210.611" stroke="white" stroke-linecap="round" stroke-linejoin="round"/>
<path d="M55.6401 123.957L93.3281 199.922" stroke="white" stroke-linecap="round" stroke-linejoin="round"/>
<path d="M88.7988 111.741L134.225 190.899" stroke="white" stroke-linecap="round" stroke-linejoin="round"/>
<path d="M75.6074 164.074H93.3584L111.546 195.932" stroke="white" stroke-linecap="round" stroke-linejoin="round"/>
<path d="M-383.333 425.459H-347.263L-332.572 446.419L1.37216 257.564" stroke="white" stroke-linecap="round" stroke-linejoin="round"/>
<path d="M29.2524 249.201L93.523 229.003" stroke="white" stroke-linecap="round" stroke-linejoin="round"/>
<path d="M88.7988 200.928L111.49 268.599L197.053 249.2" stroke="white" stroke-linecap="round" stroke-linejoin="round"/>
<path d="M208.308 275.436L142.901 293.03" stroke="white" stroke-linecap="round" stroke-linejoin="round"/>
<path d="M219.2 300.458L-79.0674 356.261" stroke="white" stroke-linecap="round" stroke-linejoin="round"/>
<path d="M-30.1689 275.436L75.5496 462.729L88.7972 500L227.394 487.195" stroke="white" stroke-linecap="round" stroke-linejoin="round"/>
<path d="M201.476 557.018V531.061L480.375 107.057" stroke="white" stroke-linecap="round" stroke-linejoin="round"/>
<path d="M349.973 305.42L237.303 167.544L492.593 326.172L343.065 351.991" stroke="white" stroke-linecap="round" stroke-linejoin="round"/>
<path d="M355.063 139.573L381.602 257.217" stroke="white" stroke-linecap="round" stroke-linejoin="round"/>
<path d="M441.6 166.052L365.35 185" stroke="white" stroke-linecap="round" stroke-linejoin="round"/>
<path d="M497.573 257.217L406.501 272.695" stroke="white" stroke-linecap="round" stroke-linejoin="round"/>
<path d="M495.094 275.436L581.881 272.695" stroke="white" stroke-linecap="round" stroke-linejoin="round"/>
<path d="M17.6338 279.392L50.9933 268.6" stroke="white" stroke-linecap="round" stroke-linejoin="round"/>
<path d="M1612.05 155.641H1464.4L1450.85 250.866L1428.46 318.607L1393.27 376.145L1362.09 460.578L1349.46 507.219L1313.12 552.472" stroke="white" stroke-linecap="round" stroke-linejoin="round"/>
<path d="M1240.03 476.784L1252.53 441.075L1349.46 213.456L1370.45 208.39L1409.88 313.957" stroke="white" stroke-linecap="round" stroke-linejoin="round"/>
<path d="M1579.63 333.981L1428.49 318.607L1316.61 290.636L1147.84 278.004L944.186 229.871L817.568 167.544L562.628 69.438" stroke="white" stroke-linecap="round" stroke-linejoin="round"/>
<path d="M531.888 139.573L609.363 119.272L632.054 96.1597" stroke="white" stroke-linecap="round" stroke-linejoin="round"/>
<path d="M686.943 52.9888L644.926 101.087" stroke="white" stroke-linecap="round" stroke-linejoin="round"/>
<path d="M552.341 189.546L587.012 167.544L660.377 107.056L761.286 78.8774" stroke="white" stroke-linecap="round" stroke-linejoin="round"/>
<path d="M609.344 119.271L632.035 132.251L727.392 171.604" stroke="white" stroke-linecap="round" stroke-linejoin="round"/>
<path d="M581.99 170.702L719.275 208.39" stroke="white" stroke-linecap="round" stroke-linejoin="round"/>
<path d="M597.244 309.133L711.969 291.747" stroke="white" stroke-linecap="round" stroke-linejoin="round"/>
<path d="M571.102 245.418L679.662 216.996L893.547 278.004" stroke="white" stroke-linecap="round" stroke-linejoin="round"/>
<path d="M779.388 318.503L804.922 238.478" stroke="white" stroke-linecap="round" stroke-linejoin="round"/>
<path d="M779.388 245.453L792.155 220.744" stroke="white" stroke-linecap="round" stroke-linejoin="round"/>
<path d="M732.312 431.705L768.601 386.175L927.528 242.781L1014.71 162.478" stroke="white" stroke-linecap="round" stroke-linejoin="round"/>
<path d="M847.047 487.265L862.174 376.214L902.792 289.561L919.581 250.068" stroke="white" stroke-linecap="round" stroke-linejoin="round"/>
<path d="M883.236 119.271L851.188 184.132L991.971 183.403L1026.38 247.5L970.417 364.068L832.257 332.037L711.979 300.422" stroke="white" stroke-linecap="round" stroke-linejoin="round"/>
<path d="M1134.96 338.422L1001 300.422" stroke="white" stroke-linecap="round" stroke-linejoin="round"/>
<path d="M1147.8 306.253L1154.49 278.004" stroke="white" stroke-linecap="round" stroke-linejoin="round"/>
<path d="M1151.19 180.419L1177.07 236.083" stroke="white" stroke-linecap="round" stroke-linejoin="round"/>
<path d="M1459.54 186.943L1147.8 261.971" stroke="white" stroke-linecap="round" stroke-linejoin="round"/>
<path d="M1170.43 256.523L1194.17 194.231L1184.77 171.604" stroke="white" stroke-linecap="round" stroke-linejoin="round"/>
<path d="M1182.66 224.457L1247.76 213.734" stroke="white" stroke-linecap="round" stroke-linejoin="round"/>
<path d="M1231.01 183.403L1194.16 194.231" stroke="white" stroke-linecap="round" stroke-linejoin="round"/>
<path d="M998.572 177.33L1040.72 201.692V233.098L1026.38 247.5" stroke="white" stroke-linecap="round" stroke-linejoin="round"/>
<path d="M1052.67 255.517L1061.9 233.099L1149.74 250.069" stroke="white" stroke-linecap="round" stroke-linejoin="round"/>
<path d="M1132.92 213.734L1061.87 199.54V175.005" stroke="white" stroke-linecap="round" stroke-linejoin="round"/>
<path d="M1436.57 287.86L1504.56 303.338" stroke="white" stroke-linecap="round" stroke-linejoin="round"/>
<path d="M1356.33 128.121L1380.16 194.231L1436.65 138.428L1464.11 140.961L1470.62 104.106" stroke="white" stroke-linecap="round" stroke-linejoin="round"/>
<path d="M711.979 261.972L792.252 278.005" stroke="white" stroke-linecap="round" stroke-linejoin="round"/>
<path d="M668.684 297.647L660.902 255.517" stroke="white" stroke-linecap="round" stroke-linejoin="round"/>
<path d="M686.934 264.956L637.179 268.6" stroke="white" stroke-linecap="round" stroke-linejoin="round"/>
<path d="M869.126 295.599L818.847 291.747" stroke="white" stroke-linecap="round" stroke-linejoin="round"/>
<path d="M-395.798 -738.8C-395.798 -738.8 -236.215 -584.371 -137.842 -525.375C-39.4684 -466.38 303.745 -237.338 334.35 -206.106C364.955 -174.873 413.049 -152.316 426.165 -133.229C439.282 -114.142 552.957 199.922 577.004 260.653C601.051 321.383 675.378 486.224 675.378 486.224C675.378 486.224 697.238 527.867 730.029 520.927C730.029 520.927 769.379 519.192 745.245 458.461C721.11 397.73 676.689 259.75 761.29 78.8773C761.29 78.8773 877.764 267.593 914.315 302.297C950.867 337 1055.75 468.872 1084.17 486.224C1112.59 503.575 1130.08 536.543 1154.13 559.1C1178.17 581.657 1184.73 611.155 1228.45 638.918C1272.18 666.68 1302.78 737.822 1283.11 824.58C1263.43 911.338 1331.2 1039.74 1331.2 1039.74" stroke="white" stroke-width="3" stroke-linecap="round" stroke-linejoin="round"/>
<path d="M-395.798 94.0771C-395.798 94.0771 117.929 578.187 135.417 604.214C152.906 630.242 312.489 941.564 332.164 944.653C351.839 947.741 423.236 859.283 423.236 859.283" stroke="white" stroke-width="3" stroke-linecap="round" stroke-linejoin="round"/>
<path d="M751.271 838.53L489.86 672.129C489.86 672.129 464.415 598.245 478.056 565.659C491.697 533.073 487.193 205.127 514.607 94.0771" stroke="white" stroke-width="3" stroke-linecap="round" stroke-linejoin="round"/>
<path d="M-21.9404 224.214C-21.9404 224.214 48.0139 330.059 120.154 394.26C192.295 458.461 279.738 526.132 288.482 553.894C297.226 581.657 236.628 789.633 236.628 789.633L364.995 838.53" stroke="white" stroke-width="3" stroke-linecap="round" stroke-linejoin="round"/>
<path d="M1058 763.849L1138.88 542.72C1138.88 542.72 1265.37 449.785 1401.21 395.995C1537.05 342.205 1792.69 279.739 1832.04 205.127" stroke="white" stroke-width="3" stroke-linecap="round" stroke-linejoin="round"/>
<path d="M-395.798 -157.521C-395.798 -157.521 -179.377 -202.635 -54.7709 -75.9683C25.8264 7.00951 100.475 93.5227 168.821 183.161C168.821 183.161 292.902 474.078 323.507 533.073C354.112 592.069 395.648 621.566 371.601 666.68C347.554 711.795 319.135 817.639 319.135 817.639" stroke="white" stroke-width="3" stroke-linecap="round" stroke-linejoin="round"/>
<path d="M-395.798 132.25C-395.798 132.25 -105.051 205.127 -17.6076 232.89C69.8353 260.652 309.385 361.292 378.684 387.319C447.982 413.347 730.03 520.926 730.03 520.926L834.961 842.139L873.392 834.435L780.921 937.677" stroke="white" stroke-width="3" stroke-linecap="round" stroke-linejoin="round"/>
<path d="M611.767 34.4224C611.767 34.4224 750.058 -67.2927 771.744 -95.0553C793.43 -122.818 846.07 -254.69 896.175 -259.896C946.28 -265.101 1252.51 -287.658 1287.48 -277.247C1322.46 -266.836 1490.79 -197.43 1534.51 -193.959C1578.23 -190.489 1777.16 -197.43 1831.81 -204.37" stroke="white" stroke-width="3" stroke-linecap="round" stroke-linejoin="round"/>
<path d="M-395.798 278.004C-395.798 278.004 -161.888 251.977 -21.9798 224.214C117.929 196.452 482.741 113.164 524.539 92.3422C566.336 71.5203 592.044 31.6116 622.824 33.3468C653.604 35.0819 1066.82 198.187 1134.58 184.306C1202.35 170.424 1508.4 69.7852 1831.94 64.5797" stroke="white" stroke-width="4" stroke-linecap="round" stroke-linejoin="round"/>
<path d="M1374.97 -730.124C1374.97 -730.124 1597.95 -428.206 1606.69 -393.503C1615.44 -358.8 1597.95 45.7704 1606.69 81.9311C1615.44 118.092 1831.86 394.26 1831.86 394.26" stroke="white" stroke-width="4" stroke-linecap="round" stroke-linejoin="round"/>
<path fill-rule="evenodd" clip-rule="evenodd" d="M711.754 133C714.747 133 717.644 134.449 719.479 136.863C722.087 140.339 722.087 145.264 719.479 148.741L711.754 158.881L704.028 148.741C701.324 145.168 701.324 140.339 704.028 136.863C705.863 134.352 708.76 133 711.754 133ZM716.775 142.56C716.775 145.387 714.484 147.679 711.657 147.679C708.831 147.679 706.539 145.387 706.539 142.56C706.539 139.734 708.831 137.442 711.657 137.442C714.484 137.442 716.775 139.734 716.775 142.56Z" fill="#257BEB"/>
<path fill-rule="evenodd" clip-rule="evenodd" d="M973.754 45C976.747 45 979.644 46.4485 981.479 48.8628C984.087 52.3393 984.087 57.2644 981.479 60.7409L973.754 70.8807L966.028 60.7409C963.324 57.1678 963.324 52.3393 966.028 48.8628C967.863 46.352 970.76 45 973.754 45ZM978.775 54.5603C978.775 57.387 976.484 59.6785 973.657 59.6785C970.831 59.6785 968.539 57.387 968.539 54.5603C968.539 51.7336 970.831 49.4421 973.657 49.4421C976.484 49.4421 978.775 51.7336 978.775 54.5603Z" fill="#257BEB"/>
<path fill-rule="evenodd" clip-rule="evenodd" d="M1154.75 129C1157.75 129 1160.64 130.449 1162.48 132.863C1165.09 136.339 1165.09 141.264 1162.48 144.741L1154.75 154.881L1147.03 144.741C1144.32 141.168 1144.32 136.339 1147.03 132.863C1148.86 130.352 1151.76 129 1154.75 129ZM1159.78 138.56C1159.78 141.387 1157.48 143.679 1154.66 143.679C1151.83 143.679 1149.54 141.387 1149.54 138.56C1149.54 135.734 1151.83 133.442 1154.66 133.442C1157.48 133.442 1159.78 135.734 1159.78 138.56Z" fill="#257BEB"/>
</g>
<defs>
<clipPath id="clip0_336_5984">
<rect width="1440" height="300" fill="white"/>
</clipPath>
</defs>
</svg>
