<svg width="44" height="56" viewBox="0 0 44 56" fill="none" xmlns="http://www.w3.org/2000/svg">
<path d="M7.72218 19.8711L5.28223 39.7421H38.7176L36.2777 19.8711H7.72218Z" fill="#257BEB"/>
<path d="M27.4193 36.129C28.5968 36.129 29.6007 35.3738 29.9737 34.3226H31.0322C32.5263 34.3226 33.7419 33.107 33.7419 31.6129V29.8065C33.7419 28.3124 32.5263 27.0968 31.0322 27.0968H29.784L28.7264 24.9819C28.2645 24.0579 27.3359 23.4839 26.3028 23.4839H19.5035C18.4705 23.4839 17.5418 24.0579 17.0799 24.9818L16.0224 27.0968H13.871C11.8788 27.0968 10.2581 28.7175 10.2581 30.7097V31.6129C10.2581 33.107 11.4737 34.3226 12.9677 34.3226H14.0263C14.3992 35.3738 15.4032 36.129 16.5806 36.129C17.7581 36.129 18.762 35.3738 19.135 34.3226H24.865C25.2379 35.3738 26.2419 36.129 27.4193 36.129ZM27.4193 34.3226C26.9213 34.3226 26.5161 33.9174 26.5161 33.4194C26.5161 32.9214 26.9213 32.5161 27.4193 32.5161C27.9174 32.5161 28.3226 32.9214 28.3226 33.4194C28.3226 33.9174 27.9174 34.3226 27.4193 34.3226ZM12.0645 31.6129V30.7097C12.0645 29.7137 12.8749 28.9032 13.871 28.9032H17.1388L18.6957 25.7896C18.8497 25.4816 19.1591 25.2903 19.5035 25.2903H26.3028C26.6472 25.2903 26.9567 25.4816 27.1107 25.7897L28.6676 28.9032H31.0322C31.5303 28.9032 31.9355 29.3085 31.9355 29.8065V31.6129C31.9355 32.1109 31.5303 32.5161 31.0322 32.5161H29.9737C29.6007 31.4649 28.5968 30.7097 27.4193 30.7097C26.2419 30.7097 25.2379 31.4649 24.865 32.5161H19.135C18.762 31.4649 17.7581 30.7097 16.5806 30.7097C15.4032 30.7097 14.3992 31.4649 14.0263 32.5161H12.9677C12.4697 32.5161 12.0645 32.1109 12.0645 31.6129ZM16.5806 34.3226C16.0826 34.3226 15.6774 33.9174 15.6774 33.4194C15.6774 32.9214 16.0826 32.5161 16.5806 32.5161C17.0787 32.5161 17.4839 32.9214 17.4839 33.4194C17.4839 33.9174 17.0787 34.3226 16.5806 34.3226Z" fill="white"/>
<path d="M43.5877 42.5644L39.7356 10.9766C39.4337 8.50173 37.7211 6.50232 35.4647 5.74576L35.136 3.77368C34.7714 1.58708 32.8979 0 30.6813 0H13.3186C11.1019 0 9.22843 1.58708 8.86375 3.77368L8.53509 5.74576C6.27861 6.50232 4.56609 8.50173 4.26419 10.9766L0.412155 42.5646C0.352768 43.053 0.32251 43.5498 0.32251 44.041C0.32251 46.1087 0.853268 48.1571 1.85754 49.9649L3.40375 52.7478C4.51822 54.7539 6.63594 56 8.93059 56H35.0693C37.3639 56 39.4816 54.7539 40.5961 52.7479L42.1423 49.9648C43.1466 48.1571 43.6773 46.1088 43.6773 44.041C43.6773 43.5498 43.6471 43.053 43.5877 42.5644ZM10.6457 4.07073C10.8644 2.75879 11.9886 1.80645 13.3186 1.80645H30.6812C32.0112 1.80645 33.1353 2.75879 33.354 4.07073L33.5793 5.42218C33.5393 5.42139 33.4996 5.41935 33.4594 5.41935H10.5405C10.5003 5.41935 10.4605 5.42139 10.4205 5.42218L10.6457 4.07073ZM2.2054 42.7832L6.05754 11.1953C6.33348 8.93223 8.26085 7.22581 10.5405 7.22581H33.4594C35.739 7.22581 37.6664 8.93223 37.9423 11.1953L41.7945 42.7829C41.8451 43.1993 41.8709 43.6225 41.8709 44.041C41.8709 44.2815 41.8616 44.5217 41.8449 44.761L40.0197 42.9359L36.1492 11.414C35.9836 10.0562 34.8272 9.03226 33.4594 9.03226H10.5405C9.17265 9.03226 8.0163 10.0562 7.85078 11.4133L3.98001 42.936L2.15493 44.7612C2.13822 44.5217 2.12896 44.2815 2.12896 44.0411C2.12896 43.6225 2.1547 43.1993 2.2054 42.7832ZM21.0967 39.7419V48.7742H9.81959L5.77799 43.1159L9.64391 11.6325C9.69901 11.18 10.0845 10.8387 10.5405 10.8387H33.4594C33.9154 10.8387 34.3008 11.18 34.3561 11.6333L38.2219 43.1159L34.1803 48.7742H22.9032V39.7419H21.0967ZM40.5632 49.0874L39.017 51.8706C38.221 53.3034 36.7083 54.1935 35.0693 54.1935H8.93059C7.29146 54.1935 5.7789 53.3034 4.98282 51.8706L3.43661 49.0876C3.05669 48.4036 2.7567 47.6791 2.54015 46.9308L4.72336 44.7476L8.88995 50.5806H35.1099L39.2764 44.7475L41.4596 46.9307C41.2431 47.679 40.9432 48.4035 40.5632 49.0874Z" fill="#5D5A88"/>
<path d="M22 18.0644C23.494 18.0644 24.7096 16.8487 24.7096 15.3547C24.7096 13.8606 23.494 12.645 22 12.645C20.5059 12.645 19.2903 13.8606 19.2903 15.3547C19.2903 16.8487 20.5059 18.0644 22 18.0644ZM22 14.4515C22.498 14.4515 22.9032 14.8567 22.9032 15.3547C22.9032 15.8527 22.498 16.2579 22 16.2579C21.5019 16.2579 21.0967 15.8527 21.0967 15.3547C21.0967 14.8567 21.5019 14.4515 22 14.4515Z" fill="#5D5A88"/>
<path d="M15.6774 41.5483C13.6852 41.5483 12.0645 43.1691 12.0645 45.1612V46.9677H19.2903V45.1612C19.2903 43.1691 17.6695 41.5483 15.6774 41.5483ZM13.8709 45.1612C13.8709 44.1652 14.6813 43.3548 15.6774 43.3548C16.6734 43.3548 17.4838 44.1652 17.4838 45.1612H13.8709Z" fill="#5D5A88"/>
<path d="M13.657 13.5288L14.0959 11.7767L17.7083 12.6816L17.2694 14.4338L13.657 13.5288Z" fill="#5D5A88"/>
<path d="M13.6575 17.1802L17.2699 16.2752L17.7088 18.0274L14.0964 18.9323L13.6575 17.1802Z" fill="#5D5A88"/>
<path d="M26.2988 12.6592L29.9112 11.7542L30.3502 13.5064L26.7378 14.4113L26.2988 12.6592Z" fill="#5D5A88"/>
<path d="M26.3074 18.0488L26.7463 16.2967L30.3587 17.2016L29.9198 18.9538L26.3074 18.0488Z" fill="#5D5A88"/>
<path d="M28.3226 41.5483C26.3304 41.5483 24.7097 43.1691 24.7097 45.1612V46.9677H26.5162V45.1612C26.5162 44.1652 27.3266 43.3548 28.3226 43.3548C29.3187 43.3548 30.1291 44.1652 30.1291 45.1612H31.9355C31.9355 43.1691 30.3148 41.5483 28.3226 41.5483Z" fill="#5D5A88"/>
</svg>
