<svg width="104" height="27" viewBox="0 0 104 27" fill="none" xmlns="http://www.w3.org/2000/svg">
<g clip-path="url(#clip0_202_4980)">
<mask id="mask0_202_4980" style="mask-type:luminance" maskUnits="userSpaceOnUse" x="0" y="0" width="104" height="27">
<path d="M103.627 0.0322266H0V26.5697H103.627V0.0322266Z" fill="white"/>
</mask>
<g mask="url(#mask0_202_4980)">
<path d="M16.0463 8.57258C14.9462 8.47686 13.8424 8.70726 12.8696 9.23568C11.8967 9.76411 11.0969 10.5677 10.5677 11.5484C10.0385 12.5291 9.80278 13.6444 9.88933 14.7584C9.97585 15.8724 10.3809 16.9368 11.0551 17.8217C9.66295 18.464 8.35271 18.9986 7.17759 19.4047C7.01791 19.1436 6.86641 18.8743 6.7272 18.5759L4.98704 18.7582C4.8993 18.7761 4.80816 18.7595 4.73208 18.7118C4.65605 18.664 4.60081 18.5888 4.57759 18.5013L3.65632 14.8961C3.63869 14.8073 3.65511 14.7151 3.70227 14.6381C3.74942 14.5612 3.82376 14.5053 3.91018 14.4818L5.70358 13.74C5.74817 12.8833 5.90372 12.0362 6.16626 11.2205L4.74137 10.0851C4.70145 10.0623 4.66649 10.0317 4.63844 9.99509C4.61039 9.95846 4.58984 9.91652 4.578 9.87177C4.56621 9.82698 4.56335 9.78027 4.56957 9.73436C4.57583 9.68845 4.59107 9.64427 4.61444 9.60441L6.45696 6.37218C6.50393 6.29233 6.57988 6.23419 6.66861 6.21019C6.75734 6.18616 6.85184 6.19822 6.93193 6.24372L8.83996 7.01862C9.51784 6.3762 10.2848 5.83733 11.1165 5.41908L10.9159 3.47146C10.8972 3.38259 10.9132 3.28985 10.9605 3.21263C11.0078 3.13541 11.0828 3.07967 11.1697 3.05707L14.7401 2.14127C14.828 2.12129 14.9201 2.13702 14.9967 2.18506C15.0732 2.2331 15.1281 2.30963 15.1496 2.39819L15.9685 4.47013C16.8033 4.51767 17.6288 4.67223 18.4252 4.93011L19.7313 3.30985C19.7789 3.23055 19.8554 3.17345 19.9443 3.15095C20.0333 3.12845 20.1274 3.14237 20.2063 3.18967L23.2812 5.05857C21.6148 6.37632 19.8255 7.95929 19.8255 7.95929C19.7524 7.79283 19.6474 7.64265 19.5167 7.51742C19.386 7.3922 19.2321 7.2944 19.0639 7.22967C18.8956 7.16494 18.7164 7.13457 18.5365 7.14033C18.3566 7.14605 18.1796 7.18778 18.0157 7.26311C17.2792 7.56172 16.6095 8.00702 16.0463 8.57258Z" fill="#172C54"/>
<path fill-rule="evenodd" clip-rule="evenodd" d="M0.106447 22.9188C-0.376702 22.09 0.818888 20.2418 3.15275 17.9461C2.04723 19.3136 1.53952 20.3827 1.87527 20.9712C2.60408 22.2392 7.49701 20.6894 12.9304 17.6934C13.5077 17.7514 13.5814 17.9751 14.2079 17.971C7.02205 22.2599 0.982667 24.4396 0.106447 22.9188Z" fill="#172C54"/>
<path d="M25.2097 17.71L26.3766 18.6382C26.4165 18.6609 26.4515 18.6916 26.4795 18.7282C26.5076 18.7648 26.5281 18.8068 26.5399 18.8515C26.5518 18.8963 26.5546 18.943 26.5484 18.9889C26.5421 19.0348 26.5269 19.079 26.5035 19.1189L24.661 22.3511C24.614 22.431 24.5381 22.4891 24.4493 22.5131C24.3606 22.5371 24.2661 22.5251 24.1861 22.4796L22.2125 21.6798C21.5571 22.3249 20.8139 22.872 20.0056 23.3042L20.198 25.2311C20.2179 25.3195 20.2029 25.4122 20.1563 25.4896C20.1096 25.567 20.035 25.623 19.9483 25.6455L16.3779 26.553C16.29 26.5719 16.1984 26.5557 16.1221 26.5078C16.0458 26.46 15.9907 26.3841 15.9684 26.2961L15.2191 24.4355C14.3166 24.4106 13.422 24.2572 12.5618 23.9797L11.4072 25.3927C11.3588 25.4723 11.2815 25.5295 11.1919 25.552C11.1023 25.5744 11.0076 25.5604 10.9281 25.5129L7.77944 23.5901C7.73964 23.5667 7.70496 23.5354 7.67737 23.4981C7.64977 23.4608 7.62983 23.4183 7.61877 23.3731C7.60768 23.3279 7.60567 23.2809 7.61288 23.2349C7.62008 23.1889 7.63634 23.1448 7.6607 23.1053L8.39771 21.3276C8.24621 21.1618 8.10291 20.9919 7.9596 20.8179C9.18795 20.3165 10.5023 19.7239 11.8821 19.0443C12.446 19.5479 13.1031 19.9331 13.8152 20.1778C14.5273 20.4224 15.2803 20.5216 16.0306 20.4696C16.7809 20.4176 17.5135 20.2153 18.186 19.8746C18.8585 19.5339 19.4575 19.0616 19.9483 18.4849C20.1366 18.4641 20.329 18.4393 20.5174 18.4103C21.4785 18.7063 22.5037 18.715 23.4695 18.4351C24.0828 18.2848 24.6696 18.0402 25.2097 17.71Z" fill="#172C54"/>
<path d="M12.656 16.6694C12.6627 16.6538 12.6723 16.6398 12.6844 16.628C12.6964 16.6163 12.7107 16.607 12.7263 16.6008C12.7419 16.5947 12.7586 16.5917 12.7753 16.5921C12.7921 16.5925 12.8086 16.5962 12.8239 16.6031C12.8501 16.62 12.8694 16.6458 12.8785 16.6759C12.8877 16.706 12.8859 16.7384 12.8736 16.7673C12.8613 16.7961 12.8392 16.8197 12.8114 16.8336C12.7835 16.8476 12.7517 16.851 12.7215 16.8434C12.7057 16.8367 12.6913 16.8268 12.6793 16.8143C12.6673 16.8018 12.658 16.7869 12.6519 16.7706C12.6458 16.7544 12.6429 16.737 12.6437 16.7196C12.6444 16.7022 12.6486 16.6851 12.656 16.6694ZM13.2702 14.4814C13.2914 14.4347 13.3258 14.3953 13.369 14.3682C13.4122 14.3412 13.4624 14.3277 13.5132 14.3294C13.564 14.3311 13.6131 14.348 13.6545 14.3779C13.6959 14.4077 13.7276 14.4493 13.7457 14.4974C13.7638 14.5455 13.7674 14.5978 13.7562 14.648C13.745 14.6982 13.7193 14.7439 13.6826 14.7794C13.6458 14.8148 13.5994 14.8385 13.5494 14.8474C13.4993 14.8563 13.4478 14.8501 13.4012 14.8295C13.3698 14.8156 13.3415 14.7955 13.3179 14.7704C13.2942 14.7453 13.2758 14.7157 13.2636 14.6833C13.2514 14.6509 13.2457 14.6163 13.2468 14.5816C13.2479 14.547 13.2559 14.5129 13.2702 14.4814ZM13.217 18.9775C13.2325 18.9416 13.2549 18.9091 13.2829 18.8819C13.3109 18.8547 13.3439 18.8334 13.38 18.8192C13.4161 18.8049 13.4547 18.7981 13.4935 18.7989C13.5323 18.7998 13.5705 18.8084 13.606 18.8242C13.6593 18.848 13.7044 18.8872 13.7357 18.937C13.767 18.9868 13.783 19.0448 13.7817 19.1037C13.7805 19.1627 13.762 19.22 13.7285 19.2683C13.6951 19.3166 13.6483 19.3538 13.594 19.3752C13.5397 19.3966 13.4803 19.4013 13.4234 19.3886C13.3666 19.3758 13.3146 19.3463 13.2743 19.3038C13.2339 19.2612 13.2069 19.2075 13.1968 19.1495C13.1866 19.0914 13.1936 19.0316 13.217 18.9775ZM15.6737 14.3529L15.4812 14.3778C14.9858 14.44 14.4904 15.161 14.3675 15.4967C14.3269 15.5929 14.3059 15.6966 14.3059 15.8012C14.3059 15.906 14.3269 16.0095 14.3675 16.1058C14.3586 16.3585 14.2775 16.6032 14.1341 16.8103C13.9867 17.0299 14.7319 16.9429 14.8261 16.9387C15.0645 16.9536 15.3033 16.9182 15.5275 16.8348C15.7516 16.7513 15.9562 16.6216 16.1282 16.4539C16.1645 16.3979 16.2056 16.3452 16.251 16.2964C15.1291 16.371 15.0595 15.9193 15.9071 15.1237C15.7954 14.8801 15.7235 14.6198 15.6941 14.3529H15.6737ZM15.6737 15.9235C15.776 16.1928 15.6737 15.7619 17.1886 14.8171C18.4497 14.0256 19.2809 13.9054 19.2359 13.7769C18.8264 12.7741 16.6932 14.7839 16.2878 15.1776C16.0557 15.3852 15.8555 15.6269 15.6941 15.8945L15.6737 15.9235ZM27.5477 9.84026C27.3575 9.94816 27.1905 10.0934 27.0565 10.2675C26.9225 10.4417 26.8242 10.6411 26.7674 10.8541C26.7106 11.0672 26.6964 11.2896 26.7256 11.5083C26.7548 11.727 26.8269 11.9376 26.9376 12.1277C27.0693 12.3271 27.2422 12.4952 27.4444 12.6204C27.6466 12.7457 27.8732 12.8249 28.1086 12.8529C28.3789 12.886 28.7023 12.6912 28.3297 12.4882C27.7688 12.1774 27.3184 11.274 28.2397 10.9715C29.1609 10.669 29.1978 11.2948 29.6482 11.0586C29.7773 10.9806 29.8718 10.8554 29.9123 10.7088C29.9527 10.5622 29.9358 10.4056 29.8652 10.2712C29.6073 9.91712 29.2261 9.67558 28.7988 9.59552C28.3714 9.5155 27.93 9.60298 27.5641 9.84026H27.5477ZM20.5871 11.7755C20.8819 11.2948 22.4337 12.0614 21.9874 12.9813C21.5411 13.9013 20.8778 14.1582 21.1275 14.469C21.3773 14.7798 23.9159 13.7811 26.1433 12.8363C26.0514 12.7371 25.9678 12.6304 25.8935 12.5172C25.5553 11.9067 25.4636 11.1874 25.6376 10.5099C25.8116 9.83255 26.2379 9.24955 26.8271 8.88302C28.2519 8.05424 30.0412 8.55151 30.7619 9.6745C30.9098 9.86922 31.0272 10.0859 31.1099 10.3168C31.631 10.0212 32.0595 9.58321 32.3464 9.05292C32.8705 8.16198 32.8664 7.80975 32.2072 7.39536C31.548 6.98098 30.8438 6.87323 31.0239 6.08175C31.2041 5.29027 31.4334 4.11755 30.2705 3.75703C29.1077 3.39651 26.9949 4.88003 25.1893 6.08175C23.3836 7.28348 19.4242 10.0267 18.2286 11.5765C17.5326 12.4882 17.1845 12.9606 17.3647 13.2051C17.6554 13.5863 18.634 12.9772 18.9165 12.5379C19.1622 13.3418 20.8819 13.2134 20.6198 11.7755H20.5871ZM26.2866 12.5006C26.2876 12.5347 26.3009 12.5671 26.3238 12.592C26.3467 12.6169 26.3778 12.6326 26.4112 12.6361C26.4447 12.6397 26.4783 12.6309 26.5058 12.6113C26.5333 12.5917 26.5529 12.5627 26.5609 12.5296C26.5598 12.4956 26.5466 12.4632 26.5237 12.4382C26.5007 12.4133 26.4697 12.3977 26.4362 12.3941C26.4028 12.3906 26.3692 12.3994 26.3417 12.419C26.3142 12.4386 26.2946 12.4676 26.2866 12.5006ZM26 11.2575C25.9965 11.2942 26.0074 11.3309 26.0304 11.3595C26.0534 11.3882 26.0866 11.4066 26.1228 11.4108C26.1409 11.4131 26.1592 11.4117 26.1767 11.4066C26.1943 11.4015 26.2106 11.3929 26.2247 11.3813C26.2389 11.3697 26.2506 11.3553 26.2591 11.339C26.2676 11.3227 26.2728 11.3048 26.2743 11.2865C26.276 11.2685 26.2741 11.2504 26.2689 11.2331C26.2636 11.2159 26.255 11.1999 26.2436 11.186C26.2322 11.1721 26.2181 11.1607 26.2023 11.1523C26.1865 11.144 26.1692 11.1389 26.1515 11.1373C26.1158 11.1337 26.0801 11.1442 26.0519 11.1666C26.0236 11.189 26.005 11.2215 26 11.2575ZM26.3439 10.1759C26.3416 10.1942 26.343 10.2128 26.348 10.2305C26.353 10.2482 26.3615 10.2648 26.373 10.2791C26.3845 10.2934 26.3987 10.3052 26.4148 10.3139C26.4309 10.3225 26.4486 10.3277 26.4667 10.3292C26.503 10.3327 26.5393 10.3217 26.5676 10.2984C26.5959 10.2752 26.6141 10.2416 26.6182 10.2049C26.6171 10.1709 26.6039 10.1384 26.581 10.1135C26.5581 10.0886 26.527 10.0729 26.4936 10.0694C26.4601 10.0658 26.4265 10.0747 26.399 10.0943C26.3715 10.1139 26.3519 10.1428 26.3439 10.1759ZM27.1628 9.42172C27.1639 9.45574 27.1771 9.48819 27.2 9.51314C27.223 9.53804 27.254 9.55371 27.2874 9.55723C27.3209 9.56079 27.3545 9.55197 27.382 9.53237C27.4095 9.51276 27.4291 9.4838 27.4371 9.45073C27.4419 9.43117 27.4424 9.41083 27.4387 9.39106C27.435 9.37129 27.4272 9.35252 27.4158 9.33607C27.4044 9.31962 27.3896 9.30582 27.3724 9.29563C27.3553 9.28543 27.3362 9.27909 27.3164 9.27698C27.2966 9.27491 27.2766 9.2771 27.2578 9.28348C27.2389 9.28991 27.2216 9.30027 27.2071 9.31398C27.1925 9.3277 27.181 9.34444 27.1734 9.363C27.1658 9.38157 27.1622 9.40163 27.1628 9.42172ZM28.2519 9.14823C28.2495 9.18478 28.2608 9.22087 28.2836 9.2493C28.3064 9.27772 28.3389 9.29641 28.3748 9.30155C28.4111 9.30503 28.4473 9.29397 28.4756 9.27072C28.504 9.24747 28.5221 9.21391 28.5263 9.17723C28.5285 9.15896 28.5271 9.14035 28.5221 9.12262C28.5171 9.10492 28.5086 9.08839 28.4972 9.07405C28.4857 9.05975 28.4714 9.0479 28.4554 9.03928C28.4392 9.03067 28.4216 9.02544 28.4034 9.02391C28.3671 9.02043 28.3309 9.03149 28.3025 9.05474C28.2743 9.07799 28.256 9.11155 28.2519 9.14823ZM29.3779 9.40515C29.379 9.43917 29.3923 9.47162 29.4151 9.49656C29.4381 9.52147 29.4691 9.53713 29.5026 9.54065C29.536 9.54422 29.5696 9.53535 29.5971 9.51579C29.6247 9.49619 29.6442 9.46722 29.6523 9.43416C29.6511 9.40013 29.6379 9.36769 29.615 9.34274C29.5921 9.31784 29.561 9.30217 29.5276 9.29865C29.4941 9.29509 29.4606 9.30395 29.433 9.32351C29.4055 9.34311 29.386 9.37208 29.3779 9.40515ZM30.1968 9.96043C30.1933 9.99718 30.2043 10.0338 30.2272 10.0625C30.2502 10.0912 30.2834 10.1096 30.3197 10.1138C30.3374 10.1155 30.3553 10.1136 30.3724 10.1082C30.3894 10.1029 30.4052 10.0942 30.4189 10.0827C30.4326 10.0711 30.4439 10.0569 30.4522 10.0409C30.4605 10.0249 30.4655 10.0074 30.4671 9.98944C30.4708 9.95318 30.4603 9.91688 30.4376 9.88849C30.4149 9.86015 30.3821 9.84204 30.3463 9.83818C30.3104 9.83433 30.2745 9.84506 30.2465 9.86798C30.2185 9.89089 30.2006 9.92417 30.1968 9.96043ZM14.994 12.0241C15.8129 11.0296 18.0444 7.82633 19.1622 8.55151C19.3382 8.66339 19.6535 8.32774 19.0844 8.06667C18.3678 7.73516 17.3483 8.70483 16.2592 10.093C15.1701 11.4812 14.8589 12.1857 14.994 12.0241ZM39.2743 2.65062C39.3079 2.54428 39.3623 2.44591 39.4344 2.36141C39.5065 2.27691 39.5947 2.20802 39.6937 2.15886C39.7928 2.10971 39.9006 2.08132 40.0108 2.07539C40.1209 2.06946 40.2311 2.08611 40.3348 2.12434C40.4385 2.16053 40.5343 2.21705 40.6164 2.29068C40.6987 2.3643 40.7657 2.45359 40.8138 2.55345C40.8619 2.6533 40.8901 2.76177 40.8967 2.87264C40.9034 2.98353 40.8885 3.09465 40.8527 3.19968C40.8169 3.30471 40.7611 3.40158 40.6884 3.48476C40.6156 3.56795 40.5274 3.63582 40.4287 3.68449C40.3301 3.73317 40.2229 3.7617 40.1133 3.76846C40.0038 3.77522 39.894 3.76007 39.7902 3.72388C39.7313 3.70283 39.6749 3.67502 39.6223 3.641C39.0546 4.07152 38.4406 4.43572 37.7921 4.7267C36.703 5.1991 36.3877 3.92279 36.0765 4.7267C35.622 5.83312 37.1165 5.19496 36.9814 6.12319C36.7234 7.90506 34.9505 12.1567 29.034 14.5353C27.1749 15.291 25.2577 15.8911 23.3017 16.3296L24.5014 16.1763C24.5014 16.1763 25.5946 16.8476 24.3908 17.8338C22.7653 19.0936 19.0189 18.5963 18.0771 18.3849C17.1354 18.1736 16.7915 18.0451 17.1682 17.8794C17.5449 17.7136 18.7036 18.0161 19.7723 17.465C20.239 17.2247 20.0138 16.8931 19.7149 16.7937C19.3059 16.82 18.8956 16.82 18.4866 16.7937C18.2102 16.7722 17.9362 16.7265 17.6677 16.6569C17.5743 16.8817 17.4348 17.0837 17.2582 17.2495C16.5049 17.954 14.474 17.8794 13.2661 17.3324C13.5819 17.1837 13.8357 16.9268 13.9826 16.6072C13.8576 16.6349 13.7272 16.6218 13.6101 16.5699C13.823 16.3254 14.0604 15.7411 14.4617 14.5767C14.5603 14.3341 14.7323 14.1293 14.9529 13.9916C15.1735 13.8539 15.4316 13.7904 15.6901 13.8101C15.7603 13.3638 15.9281 12.9391 16.1814 12.5669C16.3042 12.3722 16.4516 12.1525 16.5908 11.9619C16.5908 11.6967 16.4393 11.4647 16.0504 11.6843C15.0063 12.2727 14.6091 13.4206 14.2611 13.6402C13.913 13.8598 14.0195 13.462 14.3552 12.5959C14.691 11.7299 16.4803 8.2863 18.4497 7.68544C19.6781 7.30834 19.8009 8.5888 19.8009 8.5888L18.982 9.46731C21.4715 7.25447 24.0837 5.00434 26.7247 3.45867C30.6636 1.1381 33.1244 2.9324 33.4397 3.20175C33.9105 3.61614 33.6239 3.8482 33.5134 4.70184C33.4028 5.55548 33.9801 6.3221 34.7745 6.19364C35.5688 6.06518 35.4173 5.82898 35.0652 5.3027C34.713 4.77643 34.5247 4.22944 35.0652 3.83991C35.6056 3.45039 36.8708 3.95594 37.3745 4.17557C37.7389 4.33303 38.828 3.76118 39.393 3.41723C39.3129 3.30896 39.2602 3.18249 39.2395 3.04886C39.2188 2.91523 39.2308 2.7785 39.2743 2.65062Z" fill="#172C54"/>
<path d="M40.6459 1.01363C40.8696 1.0294 41.0882 1.08962 41.2889 1.19083C41.4895 1.29204 41.6684 1.43226 41.8154 1.6035C41.9628 1.77473 42.075 1.97362 42.1462 2.18881C42.2175 2.404 42.2462 2.63128 42.2306 2.85766C42.2285 2.88486 42.2216 2.91144 42.2093 2.93584C42.1974 2.96025 42.1806 2.98203 42.1606 2.99992C42.1401 3.01781 42.1164 3.03147 42.091 3.04013C42.0652 3.04878 42.0382 3.05225 42.0115 3.05035C41.9845 3.04844 41.9583 3.0412 41.9342 3.02903C41.91 3.01685 41.8887 2.99999 41.8707 2.97941C41.8531 2.95882 41.8396 2.93491 41.831 2.90904C41.8228 2.88318 41.8191 2.85586 41.8211 2.82865C41.8334 2.65638 41.8117 2.48336 41.7581 2.31948C41.704 2.1556 41.6189 2.00409 41.5071 1.87361C41.3953 1.74313 41.259 1.63624 41.1062 1.55907C40.9535 1.4819 40.7875 1.43596 40.6173 1.42387C40.5883 1.42541 40.5594 1.42069 40.5323 1.41004C40.5053 1.3994 40.4808 1.38306 40.4605 1.36212C40.4402 1.34117 40.4245 1.3161 40.4145 1.28855C40.4045 1.26101 40.4003 1.23162 40.4024 1.20235C40.4044 1.17307 40.4126 1.14457 40.4264 1.11872C40.4401 1.09288 40.4591 1.07029 40.4821 1.05245C40.5052 1.0346 40.5317 1.02192 40.5599 1.01522C40.5881 1.00853 40.6174 1.00799 40.6459 1.01363Z" fill="#172C54"/>
<path d="M41.1046 0.031757C41.4429 0.0554003 41.7729 0.146364 42.0763 0.299434C42.3797 0.452505 42.6499 0.664668 42.8722 0.92376C43.0946 1.18285 43.2637 1.48377 43.3709 1.80928C43.4778 2.13478 43.5204 2.47845 43.4958 2.82059C43.4938 2.8478 43.4868 2.87437 43.4745 2.89878C43.4627 2.92318 43.4459 2.94496 43.4258 2.96285C43.4053 2.98074 43.3816 2.99441 43.3562 3.00306C43.3304 3.01171 43.3034 3.01519 43.2768 3.01328C43.2498 3.01138 43.2235 3.00413 43.1994 2.99196C43.1752 2.97979 43.1539 2.96293 43.1359 2.94234C43.1183 2.92175 43.1048 2.89784 43.0962 2.87198C43.088 2.84611 43.0843 2.81879 43.0864 2.79158C43.1257 2.21105 42.9365 1.63835 42.5594 1.19879C42.1827 0.759231 41.6492 0.488611 41.076 0.446144C41.049 0.444241 41.0228 0.436995 40.9986 0.424824C40.9744 0.412651 40.9532 0.395791 40.9353 0.375204C40.9177 0.354618 40.9041 0.330709 40.8956 0.304842C40.8871 0.278975 40.8836 0.251657 40.8855 0.224448C40.8874 0.197239 40.8945 0.170671 40.9066 0.146262C40.9186 0.121853 40.9353 0.10008 40.9556 0.0821873C40.9761 0.0642943 40.9994 0.0506313 41.0252 0.0419784C41.0506 0.0333256 41.0776 0.0298524 41.1046 0.031757Z" fill="#172C54"/>
<path d="M71.7436 8.6714V11.597C71.9999 11.597 72.262 11.5887 72.5298 11.5721C72.7947 11.5529 73.0485 11.4581 73.2627 11.2986C73.3978 11.1391 73.492 10.9484 73.537 10.7433C73.6353 10.2859 73.6353 9.81255 73.537 9.35514C73.5145 9.23298 73.4666 9.11716 73.3957 9.01559C73.3249 8.91403 73.2336 8.82912 73.1275 8.76671C72.9761 8.71877 72.8192 8.69092 72.6608 8.68383C72.4806 8.68383 72.2841 8.68383 72.0671 8.68383L71.7436 8.6714ZM86.7253 8.6714V11.5348H87.6466C87.8059 11.5439 87.9647 11.5056 88.1027 11.4246C88.2411 11.3436 88.3529 11.2235 88.4246 11.079C88.5654 10.7692 88.6301 10.4293 88.6129 10.0886C88.6129 9.42145 88.4696 9.00706 88.1666 8.84545C87.708 8.66556 87.2126 8.60568 86.7253 8.6714ZM86.7253 13.6441V16.5448C86.9252 16.2983 87.1835 16.1075 87.4767 15.9907C87.7698 15.874 88.0876 15.835 88.4 15.8776H88.5801C88.5801 15.5047 88.5801 15.1649 88.5392 14.8665C88.5232 14.5616 88.4364 14.2647 88.2853 14.0004C88.2112 13.8897 88.1121 13.7987 87.9959 13.7352C87.8796 13.6717 87.7498 13.6376 87.6179 13.6358L86.7253 13.6441ZM42.0217 17.7879L43.7168 17.6098L41.8252 11.7254L42.0217 17.7879ZM80.166 17.0172C80.22 16.8461 80.3314 16.6995 80.4812 16.6028C80.5689 16.5373 80.6639 16.4817 80.7638 16.437L80.469 14.4231C80.7392 14.4646 81.0627 14.8997 81.2879 15.3679C81.2879 14.1621 81.2674 13.5819 80.4894 13.5073C80.772 9.6245 79.7483 8.53466 79.6501 8.4352C79.5477 8.53466 78.5241 9.6245 78.8066 13.5073C78.0286 13.5819 77.9877 14.1621 78.0082 15.3679C78.1691 14.9857 78.4332 14.657 78.7698 14.419L78.4217 16.7644C78.4717 16.8197 78.5171 16.8793 78.5568 16.9426L80.166 17.0172ZM103.627 20.6928C101.961 20.3323 100.004 19.9966 97.7968 19.6941H97.6945L97.6167 19.6444C96.7867 19.3625 95.8925 19.3394 95.0494 19.5781C96.2778 18.4717 97.0025 17.4399 95.0699 17.6719C95.0953 17.5075 95.0863 17.3395 95.0441 17.1787C95.0015 17.0179 94.9266 16.8678 94.8238 16.738C94.7211 16.6081 94.5925 16.5014 94.4467 16.4247C94.301 16.3479 94.1409 16.3027 93.9767 16.292C93.1987 16.1428 91.7984 16.4661 91.9294 17.7879C91.7092 17.5568 91.4225 17.4017 91.1105 17.3446C91.6224 17.6471 91.8475 18.1153 91.1842 18.5877C91.5007 18.7065 91.8054 18.8564 92.0932 19.0353C91.3321 18.8932 90.5467 18.9841 89.8372 19.2963C90.6028 18.3225 90.9877 17.473 89.4727 17.8957C89.4285 17.6211 89.2787 17.3753 89.0563 17.2115C88.834 17.0479 88.5572 16.9795 88.2853 17.0213C87.6261 17.0213 86.5575 17.4357 86.9178 18.3847C86.2299 18.02 85.9515 18.1858 85.7877 18.3474C85.7083 18.51 85.6919 18.6967 85.7423 18.8709C85.7922 19.045 85.9048 19.1938 86.0579 19.288C85.6952 19.2029 85.3533 19.0459 85.0511 18.8261C84.7489 18.6063 84.4926 18.3281 84.2973 18.0076C84.1118 18.0628 83.9349 18.1452 83.7732 18.2521C84.2359 17.4233 84.4611 16.7313 83.4989 17.1456C83.4948 17.0511 83.471 16.9585 83.4293 16.8738C83.3875 16.7891 83.3286 16.7142 83.2565 16.6541C83.184 16.5939 83.1001 16.5498 83.01 16.5245C82.9199 16.4992 82.8257 16.4934 82.7332 16.5075C82.5944 16.5065 82.4572 16.5389 82.3336 16.6021C82.2095 16.6651 82.1023 16.7571 82.0204 16.8704C81.9385 16.9837 81.884 17.115 81.8619 17.2537C81.8402 17.3923 81.8508 17.5342 81.8938 17.6678C81.4435 17.4067 81.2674 17.5559 81.1691 17.6968C81.1208 17.826 81.1143 17.9674 81.1503 18.1006C81.1863 18.2338 81.2633 18.3521 81.3697 18.4385C81.208 18.3917 81.0524 18.3249 80.9071 18.2396C79.9858 18.1941 79.0523 18.1568 78.1064 18.1195C77.8718 18.2855 77.6053 18.3998 77.3244 18.4551C77.437 18.3777 77.523 18.2666 77.5701 18.1372C77.6167 18.0079 77.6225 17.8669 77.5864 17.7341C77.5005 17.5849 77.3367 17.4233 76.8658 17.6429C76.9223 17.513 76.9477 17.3711 76.9391 17.2292C76.9301 17.0874 76.8879 16.9498 76.8159 16.8279C76.7434 16.706 76.6435 16.6035 76.5239 16.529C76.4044 16.4545 76.2688 16.4102 76.1288 16.3997C76.0375 16.3787 75.9429 16.3772 75.8512 16.395C75.7595 16.4129 75.6723 16.4499 75.5953 16.5037C75.5183 16.5574 75.4532 16.6268 75.4041 16.7073C75.3549 16.7879 75.3226 16.8779 75.3099 16.9716C74.3886 16.4743 74.5524 17.1954 74.9414 18.049C74.7899 17.9279 74.6216 17.8301 74.4419 17.7589C74.2208 18.0619 73.9423 18.3171 73.6222 18.5093C73.3024 18.7014 72.9474 18.8267 72.5789 18.8778C72.7394 18.7978 72.8643 18.6597 72.9286 18.4908C72.9932 18.3218 72.9924 18.1345 72.9269 17.9661C72.7795 17.7921 72.5175 17.6015 71.8009 17.904C72.239 16.984 71.2113 16.4743 70.5726 16.4246C70.3105 16.3675 70.0374 16.4143 69.8086 16.5554C69.5801 16.6966 69.4138 16.9212 69.3442 17.1829C67.8702 16.6277 68.1814 17.5103 68.857 18.5463C68.1769 18.1746 67.403 18.0159 66.6337 18.0905C66.9363 17.9407 67.2511 17.8186 67.5754 17.7258C66.9653 17.1788 67.2233 16.7313 67.7761 16.4826C67.514 16.292 67.0964 16.1843 66.2897 16.6732C66.6992 15.2477 65.1187 14.6635 64.1811 14.7008C63.5383 14.7256 62.7603 14.937 62.6416 16.0268C60.4387 15.4549 61.0938 16.7023 62.2976 18.0987C61.3493 17.6988 60.3089 17.5781 59.2964 17.7507L58.9852 17.875C45.3915 18.2272 33.8982 19.3419 27.5845 20.8793C29.4597 19.8102 33.3945 18.8654 38.7378 18.1319C38.9862 18.0344 39.1954 17.8561 39.3325 17.625C39.4697 17.3939 39.5269 17.1232 39.4953 16.8556V6.57874H42.2674L44.3515 13.0846L44.1386 6.57874H46.6772V17.3238L48.0447 17.2202V6.57874H54.2315V8.9076H50.7716V11.05H54.1455V13.3789H50.7716V15.8983H54.4567V16.8473C55.251 16.8141 56.0576 16.781 56.8724 16.7561V8.9076H54.7515V6.57874H61.749V8.9076H59.5707V16.6774H59.8164C59.1531 15.7119 60.5984 14.8665 62.0192 14.8997C61.8554 14.3941 61.4992 13.1882 63.8904 13.0142C64.4079 12.9627 64.9304 13.038 65.4135 13.2338V6.6036H68.1118V14.0916C68.4443 14.1296 68.7677 14.2235 69.0699 14.3692V6.57874H72.2759C72.8663 6.56718 73.4563 6.61856 74.0365 6.73207C74.6208 6.83032 75.1596 7.11318 75.576 7.54012C75.8618 7.88481 76.0612 8.29419 76.1575 8.73356C76.2586 9.1777 76.3057 9.63283 76.2967 10.0886C76.311 10.7289 76.2099 11.3665 75.9978 11.9699C75.8921 12.2681 75.7292 12.5421 75.5183 12.7761C75.3074 13.0101 75.0528 13.1995 74.7694 13.3333C74.3014 13.5506 73.7937 13.6677 73.279 13.6772L71.7313 13.7062V15.6497C71.8939 15.7667 72.0319 15.9152 72.1371 16.0867C72.2427 16.2582 72.3136 16.4491 72.3455 16.6484C72.3455 16.6484 72.8614 15.9025 74.0324 16.6152C74.1733 16.4715 74.3498 16.3685 74.5434 16.3167C74.7371 16.265 74.941 16.2665 75.1338 16.321C75.1134 16.0475 75.0806 15.3969 76.092 15.4922L77.9959 6.60775H81.251L83.1877 15.629C83.2839 15.6441 83.3756 15.6805 83.4567 15.7356C83.5374 15.7907 83.6053 15.8632 83.6553 15.9478C83.7057 16.0325 83.7364 16.1273 83.7462 16.2255C83.756 16.3236 83.7441 16.4227 83.7118 16.5158C83.8125 16.5054 83.9141 16.5054 84.0148 16.5158V6.57874H87.9578C89.0633 6.57874 89.8904 6.81494 90.4431 7.31635C90.9959 7.81776 91.262 8.64654 91.262 9.80268C91.2886 10.3497 91.1904 10.8956 90.9754 11.3981C90.7392 11.8759 90.3432 12.2533 89.8576 12.4631C90.211 12.5565 90.5332 12.7439 90.7912 13.0059C91.0381 13.2771 91.1834 13.6277 91.2006 13.9963C91.2252 14.325 91.2457 14.727 91.262 15.2022V15.3265C91.3935 15.3835 91.5114 15.4685 91.6072 15.5758C91.7034 15.6831 91.7755 15.81 91.8189 15.9481C92.0555 15.4644 92.4543 15.0815 92.944 14.8675C93.4333 14.6535 93.9824 14.6223 94.4926 14.7795C96.4702 15.2395 95.9953 16.2713 95.7823 16.6981C97.1212 16.868 98.3209 18.02 97.0107 18.8364C99.9464 19.3709 102.207 19.9925 103.627 20.6721V20.6928Z" fill="#172C54"/>
<path d="M91.3071 22.5787H91.5814C91.5945 22.577 91.6081 22.5784 91.6212 22.5827C91.6338 22.587 91.6453 22.5941 91.6551 22.6036C91.6642 22.6136 91.6707 22.6255 91.6748 22.6383C91.6793 22.6511 91.6809 22.6647 91.6797 22.6782V22.8439C91.7776 22.7621 91.8865 22.6951 92.0032 22.645C92.1735 22.5703 92.3578 22.5335 92.5436 22.5373C92.6431 22.5306 92.7426 22.5439 92.8368 22.5767C92.931 22.6094 93.0178 22.6608 93.0923 22.7279C93.1541 22.7906 93.2029 22.8658 93.2344 22.9485C93.2663 23.0313 93.2807 23.1199 93.2766 23.2086V25.0858C93.2802 25.1137 93.2729 25.1419 93.2561 25.1645C93.2463 25.1739 93.2348 25.1811 93.2221 25.1854C93.209 25.1897 93.1955 25.1911 93.1824 25.1894H92.8835C92.87 25.1908 92.8565 25.1893 92.8438 25.185C92.8311 25.1807 92.8196 25.1737 92.8098 25.1645C92.8004 25.1538 92.7934 25.1412 92.7893 25.1277C92.7852 25.1141 92.7836 25.0999 92.7852 25.0858V23.3288C92.7905 23.2363 92.7594 23.1455 92.6992 23.076C92.6137 23.0063 92.5056 22.9722 92.3962 22.9807C92.246 22.9842 92.0982 23.0195 91.9622 23.0843C91.8656 23.1301 91.7735 23.1856 91.6879 23.25V25.0858C91.6908 25.0996 91.6904 25.1139 91.6867 25.1276C91.6834 25.1412 91.6764 25.1539 91.6674 25.1645C91.6584 25.1736 91.6474 25.1806 91.6355 25.1849C91.6232 25.1891 91.6105 25.1907 91.5978 25.1894H91.3071C91.2932 25.1928 91.2784 25.1925 91.2645 25.1885C91.2506 25.1845 91.2383 25.1768 91.2285 25.1663C91.2183 25.1558 91.2113 25.1428 91.208 25.1287C91.2043 25.1146 91.2047 25.0997 91.2088 25.0858V22.6782C91.2072 22.665 91.208 22.6516 91.2117 22.6388C91.215 22.6259 91.2211 22.614 91.2293 22.6036C91.24 22.5942 91.2522 22.5872 91.2658 22.5829C91.2789 22.5787 91.2932 22.5772 91.3071 22.5787ZM37.6692 22.5787H37.9436C37.9569 22.577 37.9705 22.5784 37.9832 22.5827C37.996 22.587 38.0076 22.5941 38.0173 22.6036C38.0265 22.6143 38.0334 22.6268 38.0376 22.6404C38.0419 22.6539 38.0433 22.6682 38.0418 22.6823V22.8439C38.1403 22.7642 38.2491 22.6986 38.3653 22.6492C38.5328 22.5737 38.7143 22.5355 38.8976 22.5373C38.9987 22.529 39.1003 22.542 39.1962 22.5755C39.292 22.609 39.38 22.6623 39.4544 22.732C39.57 22.8737 39.6285 23.0542 39.6182 23.2376V24.5056C39.6282 24.6949 39.5651 24.8806 39.4421 25.0236C39.3677 25.0933 39.2798 25.1466 39.1839 25.1801C39.088 25.2136 38.9864 25.2266 38.8853 25.2184C38.704 25.2214 38.5241 25.1861 38.3571 25.1148C38.2402 25.066 38.13 25.0019 38.0295 24.9241V26.1673C38.0394 26.1926 38.0394 26.2207 38.0295 26.246C38.0056 26.2543 37.9798 26.2543 37.9558 26.246H37.6569C37.6316 26.2543 37.6045 26.2543 37.5791 26.246C37.5693 26.2207 37.5693 26.1926 37.5791 26.1673V22.6864C37.5751 22.6725 37.5748 22.6576 37.5782 22.6435C37.5817 22.6294 37.5888 22.6164 37.5987 22.6059C37.6087 22.5954 37.6212 22.5877 37.635 22.5837C37.6488 22.5797 37.6635 22.5794 37.6774 22.5829L37.6692 22.5787ZM39.1596 24.4352V23.3288C39.1613 23.2414 39.1323 23.1562 39.0777 23.0884C39.0359 23.0516 38.9871 23.0239 38.9343 23.0068C38.8815 22.9897 38.8258 22.9836 38.7706 22.989C38.6186 22.9884 38.4686 23.0239 38.3325 23.0925C38.2373 23.1404 38.1468 23.1973 38.0623 23.2624V24.5056C38.1471 24.5692 38.2376 24.6247 38.3325 24.6714C38.4693 24.7381 38.6189 24.7735 38.7706 24.775C38.8261 24.7797 38.8819 24.773 38.9347 24.7552C38.9875 24.7374 39.0362 24.7088 39.0777 24.6714C39.1204 24.6007 39.1378 24.5173 39.1269 24.4352H39.1596ZM40.3143 23.3246V23.2376C40.3103 23.1402 40.3285 23.0432 40.3675 22.954C40.4066 22.8649 40.4654 22.7861 40.5395 22.7237C40.7654 22.5762 41.0329 22.5078 41.3011 22.529C41.5709 22.5036 41.8408 22.5723 42.0668 22.7237C42.1405 22.7859 42.1986 22.8648 42.2363 22.9542C42.274 23.0435 42.2903 23.1407 42.2838 23.2376V25.0775C42.292 25.1031 42.292 25.1306 42.2838 25.1562C42.2736 25.1652 42.2621 25.172 42.2494 25.1763C42.2367 25.1806 42.2232 25.1822 42.2101 25.1811H41.9399C41.9263 25.1828 41.9128 25.1814 41.9001 25.1771C41.8874 25.1728 41.8756 25.1657 41.8662 25.1562C41.8567 25.1455 41.8498 25.133 41.8457 25.1194C41.8416 25.1059 41.84 25.0916 41.8416 25.0775V24.9241C41.7446 25.0036 41.6369 25.0691 41.5222 25.1189C41.3634 25.189 41.1918 25.2243 41.0186 25.2225C40.8181 25.2334 40.6214 25.165 40.4699 25.0319C40.4104 24.975 40.3634 24.9062 40.3316 24.8298C40.2999 24.7535 40.2843 24.6713 40.2856 24.5885V24.3316C40.2842 24.2491 40.2994 24.1673 40.3304 24.091C40.3614 24.0148 40.4075 23.9458 40.4658 23.8882C40.6152 23.7541 40.811 23.6855 41.0104 23.6976H41.8293V23.2832C41.8334 23.2342 41.826 23.1849 41.8076 23.1395C41.7888 23.094 41.7597 23.0538 41.7229 23.0221C41.6012 22.9437 41.4571 22.9086 41.3134 22.9226C41.1709 22.9108 41.0284 22.9425 40.9039 23.0138C40.8669 23.0438 40.8378 23.0825 40.8192 23.1267C40.8006 23.1707 40.7932 23.2188 40.7974 23.2666C40.7974 23.3453 40.7974 23.3702 40.7728 23.3909C40.7623 23.4002 40.7499 23.4072 40.7365 23.4115C40.7231 23.4158 40.709 23.4172 40.6951 23.4158H40.4248C40.4121 23.4171 40.3993 23.4156 40.3873 23.4113C40.3752 23.407 40.3643 23.4 40.3552 23.3909C40.3391 23.3856 40.3242 23.377 40.3115 23.3655C40.2988 23.3542 40.2886 23.3402 40.2815 23.3246H40.3143ZM41.1332 24.8164C41.2753 24.8147 41.4154 24.7807 41.5427 24.717C41.6397 24.6724 41.7306 24.6153 41.8129 24.5471V24.0954H41.0923C40.9949 24.086 40.8979 24.1158 40.822 24.1782C40.7685 24.2446 40.7422 24.3291 40.7483 24.4144V24.5222C40.7454 24.564 40.752 24.6059 40.7676 24.6447C40.7832 24.6835 40.8074 24.7181 40.8384 24.746C40.9113 24.7906 40.9949 24.8149 41.08 24.8164H41.1332ZM44.3106 22.5373C44.3355 22.5273 44.3634 22.5273 44.3884 22.5373C44.399 22.5471 44.4072 22.5594 44.4121 22.5731C44.417 22.5868 44.4187 22.6015 44.417 22.616V22.8563C44.4187 22.8709 44.417 22.8856 44.4121 22.8992C44.4072 22.913 44.399 22.9252 44.3884 22.9351C44.3667 22.9536 44.3388 22.9638 44.3106 22.9641C44.1353 22.9747 43.9638 23.0212 43.8069 23.1008C43.6984 23.1545 43.5965 23.2213 43.504 23.2997V25.065C43.5076 25.093 43.5003 25.1212 43.4835 25.1438C43.4745 25.1529 43.4634 25.1598 43.4515 25.1642C43.4393 25.1684 43.4266 25.17 43.4139 25.1686H43.1109C43.097 25.1721 43.0822 25.1718 43.0683 25.1678C43.0544 25.1637 43.0421 25.1561 43.0323 25.1456C43.022 25.1351 43.0151 25.1221 43.0118 25.108C43.0081 25.0938 43.0085 25.079 43.0126 25.065V22.6782C43.0028 22.6543 43.0028 22.6275 43.0126 22.6036C43.0233 22.5942 43.0355 22.5872 43.0491 22.5829C43.0622 22.5787 43.0765 22.5772 43.0904 22.5787H43.3647C43.3778 22.577 43.3914 22.5784 43.4045 22.5827C43.4172 22.587 43.4286 22.5941 43.4384 22.6036C43.4474 22.6136 43.454 22.6255 43.4581 22.6383C43.4626 22.6511 43.4642 22.6647 43.463 22.6782V22.9061C43.5564 22.8116 43.6628 22.7307 43.7783 22.6657C43.9257 22.585 44.0899 22.541 44.2573 22.5373H44.3106ZM45.4939 22.587H46.0303C46.054 22.5794 46.0798 22.5794 46.104 22.587C46.113 22.5971 46.1195 22.6089 46.1236 22.6217C46.1281 22.6346 46.1298 22.6481 46.1285 22.6616V22.8729C46.1298 22.8871 46.1285 22.9013 46.1244 22.9149C46.1199 22.9284 46.113 22.9409 46.104 22.9517C46.0937 22.9606 46.0823 22.9675 46.0696 22.9718C46.0569 22.976 46.0434 22.9776 46.0303 22.9765H45.4488V24.3937C45.4447 24.4429 45.4529 24.4923 45.473 24.5372C45.4931 24.5822 45.5242 24.6212 45.5635 24.6507C45.6875 24.7229 45.8304 24.7547 45.9729 24.7418H46.0712C46.0851 24.7403 46.099 24.7418 46.1126 24.746C46.1261 24.7504 46.1383 24.7574 46.149 24.7667C46.1674 24.7901 46.176 24.8198 46.1736 24.8496V25.0692C46.1748 25.0833 46.1736 25.0976 46.1695 25.1111C46.165 25.1247 46.158 25.1372 46.149 25.1479C46.1261 25.1632 46.0986 25.1705 46.0712 25.1686H45.8992C45.6355 25.1956 45.371 25.1298 45.1499 24.9822C45.0783 24.9146 45.0226 24.8312 44.9878 24.7385C44.953 24.6458 44.9399 24.5463 44.9493 24.4476V22.9972H44.6627C44.6488 22.9987 44.6344 22.9973 44.6213 22.993C44.6078 22.9887 44.5955 22.9817 44.5849 22.9724C44.5697 22.9491 44.5624 22.9214 44.5644 22.8936V22.7072C44.5624 22.6819 44.5697 22.6569 44.5849 22.6367C44.6066 22.6182 44.634 22.608 44.6627 22.6077H44.9166L44.9493 22.0773C44.9473 22.0476 44.9563 22.0182 44.9739 21.9944C44.9837 21.9854 44.9956 21.9786 45.0083 21.9743C45.021 21.97 45.0341 21.9684 45.0476 21.9696H45.3547C45.3678 21.9684 45.3813 21.97 45.394 21.9743C45.4067 21.9786 45.4181 21.9854 45.4284 21.9944C45.4357 22.0215 45.4357 22.0502 45.4284 22.0773L45.4939 22.587ZM46.8123 22.587H47.0866C47.1006 22.5855 47.1145 22.587 47.128 22.5912C47.1415 22.5955 47.1538 22.6025 47.1644 22.6119C47.1788 22.6342 47.1869 22.6599 47.189 22.6864V22.8522C47.2877 22.7695 47.3978 22.7025 47.5166 22.6533C47.6857 22.579 47.8687 22.5422 48.0529 22.5456C48.1524 22.5383 48.2519 22.5515 48.3465 22.5843C48.4407 22.617 48.5275 22.6687 48.6016 22.7362C48.6634 22.7993 48.7117 22.8744 48.7441 22.957C48.7764 23.0396 48.792 23.128 48.7899 23.2169V25.094C48.7912 25.1082 48.7899 25.1224 48.7858 25.136C48.7813 25.1495 48.7744 25.162 48.7654 25.1728C48.7564 25.1819 48.7453 25.1889 48.7334 25.1932C48.7212 25.1974 48.7085 25.199 48.6958 25.1976H48.3928C48.3793 25.1988 48.3662 25.1972 48.3535 25.1929C48.3408 25.1886 48.3289 25.1818 48.3191 25.1728C48.3097 25.162 48.3027 25.1495 48.2986 25.136C48.2945 25.1224 48.2929 25.1082 48.2945 25.094V23.3288C48.2998 23.2363 48.2687 23.1455 48.2085 23.076C48.1672 23.041 48.1197 23.0146 48.0685 22.9982C48.0169 22.9819 47.9633 22.9759 47.9096 22.9807C47.7581 22.9842 47.6087 23.0195 47.4715 23.0843C47.3753 23.1289 47.2848 23.1845 47.2013 23.25V25.0858C47.2025 25.0999 47.2013 25.1141 47.1972 25.1277C47.1927 25.1412 47.1857 25.1538 47.1767 25.1645C47.1677 25.1736 47.1566 25.1806 47.1448 25.1849C47.1325 25.1891 47.1198 25.1907 47.1071 25.1894H46.8041C46.7902 25.1908 46.7759 25.1894 46.7628 25.1851C46.7492 25.1808 46.737 25.1738 46.7263 25.1645C46.7112 25.1412 46.7038 25.1136 46.7058 25.0858V22.6782C46.7046 22.6517 46.7116 22.6256 46.7263 22.6036C46.7353 22.5931 46.7464 22.5847 46.7591 22.5787L46.8123 22.587ZM51.4391 23.2666V23.9006C51.446 23.9236 51.446 23.9481 51.4391 23.9711C51.4297 23.9799 51.419 23.9868 51.4067 23.991C51.3949 23.9953 51.3822 23.997 51.3695 23.9959H49.9528V24.4808C49.9487 24.5291 49.9565 24.5776 49.9749 24.6223C49.9933 24.6671 50.0224 24.7066 50.0592 24.7377C50.1874 24.7986 50.327 24.8302 50.4687 24.8302C50.6103 24.8302 50.75 24.7986 50.8781 24.7377C50.915 24.7066 50.9436 24.6671 50.9621 24.6223C50.9809 24.5776 50.9883 24.5291 50.9846 24.4808V24.4227C50.9805 24.4088 50.9801 24.3939 50.9838 24.3798C50.987 24.3657 50.994 24.3527 51.0042 24.3422C51.0141 24.3317 51.0263 24.324 51.0403 24.32C51.0542 24.3159 51.0689 24.3157 51.0829 24.3191H51.349C51.3621 24.318 51.3756 24.3196 51.3883 24.3239C51.401 24.3282 51.4125 24.335 51.4227 24.344C51.4317 24.3547 51.4387 24.3672 51.4432 24.3808C51.4473 24.3943 51.4485 24.4086 51.4473 24.4227V24.5098C51.4534 24.6082 51.4366 24.7068 51.3981 24.7975C51.3596 24.8882 51.3007 24.9684 51.2262 25.0319C50.9883 25.161 50.7221 25.2286 50.4523 25.2286C50.1821 25.2286 49.9163 25.161 49.6784 25.0319C49.6035 24.9684 49.545 24.8882 49.5065 24.7975C49.468 24.7068 49.4512 24.6082 49.4573 24.5098V23.2666C49.4512 23.1671 49.4684 23.0676 49.5077 22.9762C49.547 22.8848 49.6068 22.804 49.6825 22.7403C49.9143 22.5883 50.1894 22.5197 50.4646 22.5456C50.734 22.5209 51.0042 22.5895 51.2303 22.7403C51.2913 22.8103 51.3367 22.8928 51.3637 22.9822C51.3908 23.0715 51.3981 23.1657 51.3858 23.2583L51.4391 23.2666ZM49.9323 23.2956V23.6271H50.9764V23.2956C50.9784 23.2472 50.9694 23.199 50.9494 23.1551C50.9293 23.1111 50.8994 23.0726 50.8618 23.0428C50.7352 22.9767 50.5948 22.9422 50.4523 22.9422C50.3098 22.9422 50.1694 22.9767 50.0429 23.0428C49.997 23.066 49.9581 23.1007 49.9294 23.1434C49.9008 23.1862 49.8836 23.2358 49.8791 23.2873L49.9323 23.2956ZM53.388 22.5456C53.4118 22.5359 53.438 22.5359 53.4618 22.5456C53.4724 22.5554 53.4806 22.5677 53.4855 22.5814C53.4904 22.5951 53.492 22.6098 53.4904 22.6243V22.8646C53.492 22.8791 53.4904 22.8939 53.4855 22.9075C53.4806 22.9212 53.4724 22.9335 53.4618 22.9434C53.4409 22.961 53.4151 22.9712 53.388 22.9724C53.2116 22.9831 53.0388 23.0296 52.8803 23.1091C52.7722 23.1639 52.6707 23.2306 52.5773 23.308V25.0733C52.5802 25.0872 52.5798 25.1015 52.5761 25.1151C52.5728 25.1288 52.5659 25.1415 52.5569 25.1521C52.5479 25.1612 52.5368 25.1681 52.5249 25.1724C52.5126 25.1767 52.5 25.1782 52.4873 25.1769H52.1843C52.1703 25.1784 52.156 25.177 52.1429 25.1727C52.1294 25.1684 52.1171 25.1614 52.1065 25.1521C52.0983 25.1265 52.0983 25.0989 52.1065 25.0733V22.6782C52.0987 22.6539 52.0987 22.6279 52.1065 22.6036C52.1171 22.5942 52.1294 22.5872 52.1429 22.5829C52.156 22.5787 52.1703 22.5772 52.1843 22.5787H52.4095C52.4234 22.5772 52.4373 22.5787 52.4508 22.5829C52.4643 22.5872 52.4766 22.5942 52.4873 22.6036C52.4946 22.6279 52.4946 22.6539 52.4873 22.6782V22.9061C52.5806 22.8116 52.6871 22.7307 52.8025 22.6657C52.9659 22.5765 53.1493 22.5322 53.3348 22.5373L53.388 22.5456ZM55.0258 23.3329V23.2376C55.0197 23.1399 55.0369 23.0422 55.0762 22.9528C55.1155 22.8634 55.1753 22.7848 55.251 22.7237C55.4746 22.5742 55.7416 22.5055 56.0085 22.529C56.2796 22.504 56.5506 22.5727 56.7783 22.7237C56.8512 22.7863 56.9085 22.8655 56.9457 22.9548C56.9826 23.0441 56.9982 23.141 56.9912 23.2376V25.0775C56.9941 25.0913 56.9937 25.1056 56.99 25.1193C56.9867 25.133 56.9797 25.1456 56.9707 25.1562C56.9617 25.1653 56.9507 25.1723 56.9388 25.1766C56.9265 25.1809 56.9138 25.1824 56.9011 25.1811H56.6309C56.617 25.1825 56.6026 25.1811 56.5895 25.1768C56.576 25.1725 56.5637 25.1655 56.5531 25.1562C56.5379 25.1326 56.5297 25.1054 56.5285 25.0775V24.9241C56.4303 25.0018 56.323 25.0672 56.2092 25.1189C56.0503 25.189 55.8787 25.2243 55.7055 25.2225C55.5049 25.2342 55.308 25.1658 55.1569 25.0319C55.0975 24.975 55.0504 24.9062 55.0185 24.8298C54.9869 24.7535 54.971 24.6713 54.9726 24.5885V24.3316C54.9706 24.249 54.9853 24.167 55.0164 24.0906C55.0475 24.0142 55.0938 23.9453 55.1528 23.8882C55.2257 23.8215 55.3112 23.7703 55.4038 23.7376C55.4967 23.7049 55.595 23.6913 55.6932 23.6976H56.5121V23.2832C56.5171 23.2345 56.5105 23.1853 56.4925 23.1399C56.4749 23.0944 56.4462 23.054 56.4098 23.0221C56.2874 22.9454 56.1436 22.9105 56.0003 22.9226C55.8578 22.9092 55.7145 22.941 55.5909 23.0138C55.5524 23.0428 55.5221 23.0813 55.5028 23.1255C55.4836 23.1698 55.4758 23.2184 55.4803 23.2666C55.4918 23.3072 55.4918 23.3503 55.4803 23.3909C55.4697 23.4002 55.4574 23.4072 55.4439 23.4115C55.4304 23.4158 55.4165 23.4172 55.4025 23.4158H55.1323C55.1188 23.4169 55.1057 23.4153 55.093 23.411C55.0803 23.4067 55.0684 23.3999 55.0586 23.3909C55.0213 23.3812 54.989 23.3575 54.9685 23.3246L55.0258 23.3329ZM55.8202 24.8247C55.9623 24.8227 56.1019 24.7887 56.2296 24.7252C56.3246 24.6796 56.4139 24.6226 56.4958 24.5553V24.0954H55.7792C55.7309 24.0901 55.6822 24.0947 55.6355 24.1089C55.5892 24.1231 55.5463 24.1467 55.509 24.1782C55.4807 24.2101 55.4599 24.2477 55.4472 24.2883C55.4345 24.3291 55.4304 24.3721 55.4353 24.4144V24.5222C55.4312 24.5641 55.4373 24.6063 55.4533 24.6453C55.4689 24.6842 55.4934 24.7188 55.5254 24.746C55.597 24.7901 55.6789 24.8144 55.7629 24.8164L55.8202 24.8247ZM57.7159 22.587H59.2882C59.3156 22.5833 59.3435 22.5908 59.366 22.6077C59.3812 22.631 59.3881 22.6586 59.3865 22.6864V22.8978C59.3857 22.9253 59.3787 22.9522 59.366 22.9765L58.1377 24.7874H59.366C59.3934 24.7862 59.4205 24.7934 59.4438 24.8081C59.4524 24.8322 59.4524 24.8586 59.4438 24.8827V25.0982C59.452 25.1238 59.452 25.1513 59.4438 25.1769C59.4205 25.1917 59.3934 25.1989 59.366 25.1976H57.6381C57.6119 25.1988 57.5861 25.1916 57.5644 25.1769C57.555 25.1662 57.548 25.1537 57.544 25.1401C57.5399 25.1266 57.5382 25.1123 57.5399 25.0982V24.8205L58.7682 23.0138H57.7118C57.6983 23.0159 57.6848 23.0148 57.6717 23.0106C57.659 23.0064 57.6471 22.9991 57.6377 22.9894C57.6279 22.9797 57.6209 22.9678 57.6168 22.9548C57.6123 22.9418 57.6115 22.9279 57.6136 22.9144V22.6989C57.6119 22.6847 57.6136 22.6705 57.6177 22.6569C57.6217 22.6434 57.6287 22.6309 57.6381 22.6201C57.6414 22.6049 57.6488 22.5907 57.6586 22.5787L57.7159 22.587ZM61.0939 24.518V23.2749C61.089 23.1735 61.1086 23.0724 61.1516 22.9806C61.1942 22.8888 61.2589 22.8091 61.3395 22.7486C61.5852 22.6206 61.8575 22.5539 62.1339 22.5539C62.4103 22.5539 62.6825 22.6206 62.9282 22.7486C63.0089 22.8091 63.0732 22.8888 63.1161 22.9806C63.1591 23.0724 63.1788 23.1735 63.1739 23.2749V24.518C63.1792 24.6189 63.1595 24.7195 63.1166 24.8107C63.0736 24.9019 63.0089 24.9808 62.9282 25.0402C62.6834 25.1708 62.4107 25.2391 62.1339 25.2391C61.8571 25.2391 61.5844 25.1708 61.3395 25.0402C61.247 24.9871 61.17 24.9099 61.1168 24.8167C61.0636 24.7234 61.0357 24.6175 61.0366 24.5098L61.0939 24.518ZM62.6457 24.4808V23.2997C62.649 23.2488 62.6391 23.1978 62.617 23.1519C62.5945 23.1061 62.5605 23.067 62.5188 23.0387C62.3935 22.9695 62.2514 22.9379 62.1093 22.9475C61.9668 22.9385 61.8252 22.9701 61.6999 23.0387C61.6577 23.067 61.6241 23.1061 61.6016 23.1519C61.5795 23.1978 61.5692 23.2488 61.5729 23.2997V24.4808C61.5692 24.5317 61.5795 24.5827 61.6016 24.6286C61.6241 24.6744 61.6577 24.7135 61.6999 24.7418C61.8252 24.8104 61.9668 24.842 62.1093 24.833C62.2514 24.8426 62.3935 24.811 62.5188 24.7418C62.5605 24.7135 62.5945 24.6744 62.617 24.6286C62.6391 24.5827 62.649 24.5317 62.6457 24.4808ZM63.915 22.5911H64.1934C64.2065 22.5894 64.22 22.5908 64.2331 22.5951C64.2458 22.5994 64.2573 22.6066 64.2671 22.616C64.2814 22.6384 64.2896 22.664 64.2917 22.6906V22.8563C64.3908 22.7746 64.5013 22.7077 64.6192 22.6574C64.7896 22.5827 64.9738 22.5459 65.1597 22.5497C65.2592 22.543 65.3587 22.5564 65.4529 22.5891C65.547 22.6218 65.6338 22.6732 65.7084 22.7403C65.7702 22.8031 65.8189 22.8782 65.8504 22.961C65.8824 23.0438 65.8967 23.1323 65.8926 23.221V25.0982C65.8942 25.126 65.8873 25.1536 65.8721 25.1769C65.8619 25.1859 65.8504 25.1928 65.8378 25.197C65.8251 25.2013 65.8115 25.2029 65.7984 25.2018H65.4955C65.4819 25.2029 65.4688 25.2013 65.4561 25.197C65.4434 25.1928 65.4316 25.1859 65.4217 25.1769C65.4123 25.1662 65.4054 25.1537 65.4013 25.1401C65.3972 25.1266 65.3955 25.1123 65.3972 25.0982V23.3288C65.4017 23.2828 65.3964 23.2364 65.3816 23.1928C65.3669 23.1492 65.3427 23.1093 65.3112 23.076C65.2698 23.041 65.2223 23.0146 65.1712 22.9982C65.1196 22.9819 65.0659 22.9759 65.0123 22.9807C64.8608 22.9842 64.7114 23.0195 64.5742 23.0843C64.4788 23.13 64.3879 23.1855 64.304 23.25V25.0858C64.3056 25.1136 64.2986 25.1412 64.2835 25.1645C64.2732 25.1735 64.2618 25.1803 64.2491 25.1846C64.2364 25.1889 64.2229 25.1905 64.2098 25.1894H63.9068C63.8933 25.1908 63.8798 25.1893 63.8671 25.185C63.8544 25.1807 63.8429 25.1737 63.8331 25.1645C63.8237 25.1538 63.8167 25.1412 63.8126 25.1277C63.8085 25.1141 63.8069 25.0999 63.8085 25.0858V22.6782C63.8073 22.6647 63.8089 22.6511 63.813 22.6383C63.8175 22.6255 63.8241 22.6136 63.8331 22.6036C63.8499 22.588 63.8716 22.5792 63.8945 22.5787L63.915 22.5911ZM67.1046 21.6256V25.0982C67.1062 25.126 67.0993 25.1536 67.0841 25.1769C67.0739 25.1859 67.0624 25.1928 67.0497 25.197C67.037 25.2013 67.0235 25.2029 67.0104 25.2018H66.7115C66.6976 25.2039 66.6833 25.2027 66.6698 25.1982C66.6566 25.1937 66.6444 25.1862 66.6345 25.1761C66.6247 25.166 66.6169 25.1537 66.6128 25.1402C66.6083 25.1267 66.6071 25.1123 66.6091 25.0982V21.6132C66.6075 21.5991 66.6092 21.5848 66.6132 21.5712C66.6173 21.5577 66.6243 21.5452 66.6337 21.5344C66.6431 21.5234 66.6554 21.5153 66.6689 21.5109C66.6829 21.5065 66.6976 21.506 66.7115 21.5096H67.0104C67.0235 21.5064 67.0378 21.507 67.0505 21.5114C67.0636 21.5158 67.0751 21.5238 67.0841 21.5344C67.0923 21.5601 67.0923 21.5876 67.0841 21.6132L67.1046 21.6256ZM68.3329 22.6947V25.0982C68.3342 25.1123 68.3329 25.1266 68.3288 25.1401C68.3243 25.1537 68.3174 25.1662 68.3084 25.1769C68.2994 25.186 68.2883 25.193 68.2764 25.1973C68.2641 25.2016 68.2515 25.2031 68.2388 25.2018H67.9358C67.9218 25.2033 67.9075 25.2018 67.8944 25.1975C67.8809 25.1932 67.8686 25.1862 67.858 25.1769C67.8428 25.1536 67.8354 25.126 67.8375 25.0982V22.6947C67.8354 22.6669 67.8428 22.6393 67.858 22.616C67.8686 22.6067 67.8809 22.5997 67.8944 22.5954C67.9075 22.5911 67.9218 22.5896 67.9358 22.5911H68.2388C68.2515 22.5898 68.2641 22.5913 68.2764 22.5956C68.2883 22.5999 68.2994 22.6069 68.3084 22.616C68.3211 22.6356 68.3268 22.659 68.3247 22.6823L68.3329 22.6947ZM68.3329 21.6256V22.098C68.3342 22.1121 68.3329 22.1264 68.3288 22.14C68.3243 22.1535 68.3174 22.166 68.3084 22.1768C68.2994 22.186 68.2883 22.1927 68.276 22.1964C68.2641 22.2 68.251 22.2004 68.2388 22.1975H67.9358C67.9218 22.2004 67.9079 22.2 67.8944 22.1964C67.8809 22.1928 67.8682 22.1861 67.858 22.1768C67.8428 22.1535 67.8354 22.1258 67.8375 22.098V21.6132C67.8354 21.5854 67.8428 21.5577 67.858 21.5344C67.8686 21.5251 67.8809 21.5181 67.8944 21.5138C67.9075 21.5095 67.9218 21.5081 67.9358 21.5096H68.2388C68.2515 21.5082 68.2641 21.5098 68.2764 21.5141C68.2883 21.5184 68.2994 21.5253 68.3084 21.5344C68.3161 21.5458 68.3215 21.5586 68.3243 21.5721C68.3272 21.5857 68.3272 21.5996 68.3247 21.6132L68.3329 21.6256ZM69.1764 22.5911H69.4507C69.4638 22.5894 69.4773 22.5908 69.4904 22.5951C69.5031 22.5994 69.5146 22.6066 69.5244 22.616C69.5404 22.6375 69.549 22.6637 69.549 22.6906V22.8563C69.6481 22.7746 69.7586 22.7077 69.8766 22.6574C70.0469 22.5827 70.2311 22.5459 70.417 22.5497C70.5165 22.543 70.616 22.5564 70.7102 22.5891C70.8044 22.6218 70.8912 22.6732 70.9657 22.7403C71.0275 22.8031 71.0762 22.8782 71.1078 22.961C71.1397 23.0438 71.154 23.1323 71.1499 23.221V25.0982C71.1516 25.126 71.1446 25.1536 71.1295 25.1769C71.1192 25.1859 71.1078 25.1928 71.0951 25.197C71.0824 25.2013 71.0689 25.2029 71.0558 25.2018H70.7528C70.7393 25.2029 70.7262 25.2013 70.7135 25.197C70.7008 25.1928 70.6889 25.1859 70.6791 25.1769C70.6697 25.1662 70.6627 25.1537 70.6586 25.1401C70.6545 25.1266 70.6529 25.1123 70.6545 25.0982V23.3288C70.659 23.2828 70.6537 23.2364 70.6389 23.1928C70.6242 23.1492 70.6001 23.1093 70.5685 23.076C70.5272 23.041 70.4797 23.0146 70.4285 22.9982C70.3769 22.9819 70.3233 22.9759 70.2696 22.9807C70.1194 22.9837 69.9711 23.019 69.8356 23.0843C69.7382 23.1291 69.6464 23.1847 69.5613 23.25V25.0858C69.5695 25.1114 69.5695 25.1389 69.5613 25.1645C69.551 25.1735 69.5396 25.1803 69.5269 25.1846C69.5142 25.1889 69.5007 25.1905 69.4876 25.1894H69.1887C69.1748 25.1915 69.1604 25.1902 69.1469 25.1857C69.1338 25.1813 69.1215 25.1737 69.1117 25.1637C69.1019 25.1536 69.0941 25.1413 69.09 25.1277C69.0855 25.1142 69.0843 25.0998 69.0863 25.0858V22.6782C69.0851 22.6647 69.0867 22.6511 69.0908 22.6383C69.0953 22.6255 69.1019 22.6136 69.1109 22.6036C69.1268 22.5894 69.1469 22.5807 69.1682 22.5787L69.1764 22.5911ZM73.7991 23.2707V23.9006C73.7995 23.9257 73.7925 23.9503 73.7786 23.9711C73.77 23.9798 73.7598 23.9866 73.7487 23.9909C73.7372 23.9952 73.725 23.9969 73.7131 23.9959H72.2964V24.4808C72.2919 24.5287 72.2989 24.5771 72.3169 24.6218C72.3345 24.6664 72.3627 24.7062 72.3988 24.7377C72.5269 24.7978 72.6665 24.829 72.8082 24.829C72.9495 24.829 73.0891 24.7978 73.2177 24.7377C73.2537 24.7062 73.2815 24.6664 73.2995 24.6218C73.3172 24.5771 73.3245 24.5287 73.32 24.4808V24.4227C73.3184 24.4086 73.32 24.3943 73.3241 24.3808C73.3282 24.3672 73.3352 24.3547 73.3446 24.344C73.354 24.3346 73.3659 24.3274 73.3786 24.3231C73.3913 24.3188 73.4048 24.3174 73.4183 24.3191H73.7008C73.7139 24.318 73.7274 24.3196 73.7401 24.3239C73.7528 24.3282 73.7643 24.335 73.7745 24.344C73.7835 24.3547 73.7905 24.3672 73.795 24.3808C73.7991 24.3943 73.8003 24.4086 73.7991 24.4227V24.5098C73.8052 24.6082 73.7884 24.7068 73.7499 24.7975C73.7114 24.8882 73.6525 24.9684 73.578 25.0319C73.3401 25.161 73.0739 25.2286 72.8041 25.2286C72.5339 25.2286 72.2681 25.161 72.0303 25.0319C71.9553 24.9684 71.8968 24.8882 71.8583 24.7975C71.8198 24.7068 71.803 24.6082 71.8092 24.5098V23.2666C71.8042 23.1673 71.8218 23.0681 71.8607 22.9768C71.9 22.8855 71.9594 22.8046 72.0343 22.7403C72.2665 22.5898 72.5417 22.5213 72.8164 22.5456C73.0862 22.5202 73.3561 22.5889 73.5821 22.7403C73.6533 22.8049 73.7094 22.8851 73.7454 22.9749C73.7815 23.0647 73.797 23.1616 73.7909 23.2583L73.7991 23.2707ZM72.2964 23.2997V23.6313H73.3364V23.2997C73.3397 23.2513 73.3311 23.2027 73.311 23.1585C73.2909 23.1144 73.2602 23.076 73.2217 23.047C73.0952 22.9808 72.9548 22.9463 72.8123 22.9463C72.6698 22.9463 72.5294 22.9808 72.4029 23.047C72.3656 23.0746 72.3361 23.1109 72.316 23.1528C72.296 23.1947 72.2866 23.2408 72.2882 23.2873L72.2964 23.2997ZM76.5096 25.2018H76.1575C76.1325 25.2037 76.1075 25.1964 76.0879 25.1811C76.0691 25.16 76.0564 25.1342 76.051 25.1065L75.2321 22.6947C75.2256 22.6826 75.2223 22.6691 75.2223 22.6554C75.2223 22.6416 75.2256 22.6281 75.2321 22.616C75.2538 22.598 75.2817 22.5891 75.3099 22.5911H75.6293C75.6428 22.5896 75.6567 22.5915 75.6694 22.5966C75.6825 22.6016 75.694 22.6097 75.703 22.6201C75.7214 22.6419 75.7354 22.6673 75.744 22.6947L76.2353 24.2073C76.2599 24.2845 76.2791 24.3634 76.2926 24.4435L76.3131 24.5968L76.3417 24.4393C76.3569 24.3619 76.3774 24.2858 76.4032 24.2114L76.9232 22.6947C76.9301 22.6676 76.9428 22.6422 76.96 22.6201C76.969 22.6097 76.9805 22.6016 76.9932 22.5966C77.0063 22.5915 77.0198 22.5896 77.0337 22.5911H77.3203C77.3482 22.5891 77.376 22.598 77.3981 22.616C77.4055 22.6278 77.4092 22.6414 77.4092 22.6554C77.4092 22.6693 77.4055 22.6829 77.3981 22.6947L76.5792 25.1065C76.5731 25.1332 76.562 25.1586 76.5465 25.1811C76.5321 25.1872 76.517 25.1901 76.5014 25.1894L76.5096 25.2018ZM78.3767 22.6947V25.0982C78.3804 25.1261 78.373 25.1544 78.3562 25.1769C78.3464 25.1864 78.3349 25.1935 78.3223 25.1978C78.3092 25.2021 78.2956 25.2035 78.2825 25.2018H77.9836C77.9697 25.2053 77.955 25.205 77.9411 25.2009C77.9275 25.1969 77.9149 25.1892 77.905 25.1787C77.8948 25.1682 77.8878 25.1553 77.8846 25.1411C77.8809 25.1269 77.8813 25.1122 77.8854 25.0982V22.6947C77.8813 22.6808 77.8809 22.6659 77.8846 22.6518C77.8878 22.6377 77.8948 22.6247 77.905 22.6142C77.9149 22.6037 77.9275 22.596 77.9411 22.592C77.955 22.5879 77.9697 22.5877 77.9836 22.5911H78.2825C78.2956 22.5894 78.3092 22.5908 78.3223 22.5951C78.3349 22.5994 78.3464 22.6066 78.3562 22.616C78.3673 22.6362 78.3714 22.6594 78.3685 22.6823L78.3767 22.6947ZM78.3767 21.6256V22.098C78.3804 22.1259 78.373 22.1542 78.3562 22.1768C78.3468 22.1863 78.3349 22.1933 78.3218 22.1969C78.3092 22.2005 78.2956 22.2007 78.2825 22.1975H77.9836C77.9697 22.2004 77.9558 22.2 77.9423 22.1964C77.9288 22.1928 77.9161 22.1861 77.9058 22.1768C77.8891 22.1542 77.8817 22.1259 77.8854 22.098V21.6132C77.8813 21.5992 77.8809 21.5844 77.8846 21.5703C77.8878 21.5561 77.8948 21.5432 77.905 21.5327C77.9149 21.5221 77.9275 21.5145 77.9411 21.5104C77.955 21.5064 77.9697 21.5061 77.9836 21.5096H78.2825C78.2956 21.5079 78.3092 21.5093 78.3223 21.5136C78.3349 21.5179 78.3464 21.525 78.3562 21.5344C78.3702 21.5582 78.3743 21.5863 78.3685 21.6132L78.3767 21.6256ZM79.6051 21.6256V25.0982C79.6067 25.126 79.5997 25.1536 79.5846 25.1769C79.5743 25.1859 79.5629 25.1928 79.5502 25.197C79.5375 25.2013 79.524 25.2029 79.5109 25.2018H79.2079C79.1944 25.2035 79.1809 25.2021 79.1682 25.1978C79.1555 25.1935 79.1436 25.1864 79.1342 25.1769C79.1248 25.1662 79.1178 25.1537 79.1137 25.1401C79.1096 25.1266 79.108 25.1123 79.1096 25.0982V21.6132C79.108 21.5991 79.1096 21.5848 79.1137 21.5712C79.1178 21.5577 79.1248 21.5452 79.1342 21.5344C79.1342 21.5344 79.171 21.5054 79.2079 21.5096H79.5109C79.524 21.5064 79.5383 21.507 79.551 21.5114C79.5641 21.5158 79.5756 21.5238 79.5846 21.5344C79.601 21.5572 79.6096 21.5849 79.6091 21.6132L79.6051 21.6256ZM80.3257 23.337V23.2376C80.3216 23.1402 80.34 23.0432 80.3789 22.954C80.4178 22.8649 80.4768 22.7861 80.5509 22.7237C80.7769 22.5762 81.0443 22.5078 81.3125 22.529C81.5823 22.5036 81.8521 22.5723 82.0781 22.7237C82.1526 22.7854 82.2116 22.8643 82.2501 22.9536C82.2886 23.0429 82.3054 23.1403 82.2992 23.2376V25.0775C82.3009 25.1053 82.2939 25.1329 82.2788 25.1562C82.2685 25.1652 82.2571 25.172 82.2444 25.1763C82.2317 25.1806 82.2182 25.1822 82.2051 25.1811H81.9348C81.9213 25.1828 81.9078 25.1814 81.8951 25.1771C81.8824 25.1728 81.8705 25.1657 81.8611 25.1562C81.8517 25.1455 81.8447 25.133 81.8406 25.1194C81.8366 25.1059 81.8349 25.0916 81.8366 25.0775V24.9241C81.7395 25.0036 81.6318 25.0691 81.5172 25.1189C81.3583 25.189 81.1868 25.2243 81.0136 25.2225C80.8129 25.2334 80.6164 25.165 80.4649 25.0319C80.4055 24.975 80.3584 24.9062 80.3265 24.8298C80.295 24.7535 80.279 24.6713 80.2807 24.5885V24.3316C80.279 24.2491 80.2946 24.1673 80.3253 24.091C80.3564 24.0148 80.4023 23.9458 80.4608 23.8882C80.6103 23.7541 80.806 23.6855 81.0054 23.6976H81.8243V23.2832C81.8284 23.2346 81.821 23.1857 81.8034 23.1405C81.7858 23.0952 81.7575 23.0546 81.7219 23.0221C81.5995 22.9456 81.4558 22.9108 81.3125 22.9226C81.17 22.9103 81.0271 22.942 80.903 23.0138C80.8662 23.044 80.8367 23.0827 80.8174 23.1267C80.7982 23.1706 80.7896 23.2186 80.7925 23.2666C80.7925 23.3453 80.7925 23.3702 80.7925 23.3909C80.7818 23.4002 80.7695 23.4072 80.756 23.4115C80.7425 23.4158 80.7286 23.4172 80.7147 23.4158H80.4444C80.4317 23.4171 80.4186 23.4156 80.4068 23.4113C80.3949 23.407 80.3838 23.4 80.3748 23.3909C80.3527 23.3745 80.3372 23.3511 80.3298 23.3246L80.3257 23.337ZM81.1241 24.8288C81.2662 24.8271 81.4062 24.7931 81.5336 24.7294C81.6306 24.6848 81.7215 24.6277 81.8038 24.5595V24.0954H81.0832C80.9857 24.086 80.8887 24.1158 80.8129 24.1782C80.7593 24.2446 80.7331 24.3291 80.7392 24.4144V24.5222C80.7364 24.564 80.7429 24.6059 80.7585 24.6447C80.774 24.6835 80.7982 24.7181 80.8293 24.746C80.9186 24.8017 81.0234 24.8264 81.1282 24.8164L81.1241 24.8288ZM81.8406 21.58L81.4312 22.1726C81.3657 22.2265 81.337 22.2348 81.3043 22.2348H81.0709C81.0471 22.2369 81.0234 22.2294 81.0054 22.214C80.9988 22.2027 80.9955 22.1898 80.9955 22.1768C80.9955 22.1637 80.9988 22.1508 81.0054 22.1395L81.3125 21.5759C81.3256 21.5493 81.3436 21.5255 81.3657 21.5054C81.3894 21.4881 81.4181 21.4794 81.4476 21.4806H81.771C81.8079 21.4806 81.8284 21.4806 81.8366 21.5096C81.8447 21.5386 81.8611 21.5303 81.8406 21.58ZM83.6832 25.2515C83.582 25.2598 83.4805 25.2468 83.3847 25.2133C83.2885 25.1797 83.2008 25.1265 83.1263 25.0568C83.0035 24.9138 82.94 24.728 82.9503 24.5388V23.2376C82.94 23.0483 83.0035 22.8626 83.1263 22.7196C83.2008 22.6499 83.2885 22.5966 83.3847 22.5631C83.4805 22.5296 83.582 22.5165 83.6832 22.5248C83.8691 22.5222 84.0533 22.5604 84.2236 22.6367C84.3407 22.6881 84.4497 22.7565 84.5471 22.8398V22.6699C84.5455 22.6557 84.5471 22.6414 84.5512 22.6279C84.5553 22.6144 84.5623 22.6019 84.5717 22.5911C84.5811 22.5817 84.593 22.5746 84.6057 22.5703C84.6183 22.5659 84.6319 22.5646 84.6454 22.5663H84.9197C84.9336 22.5628 84.9484 22.5631 84.9619 22.5671C84.9758 22.5712 84.9885 22.5788 84.9983 22.5894C85.0081 22.5998 85.0155 22.6128 85.0188 22.6269C85.0221 22.6411 85.0221 22.6559 85.018 22.6699V25.5292C85.0237 25.6292 85.0053 25.7293 84.9639 25.8203C84.9226 25.9114 84.8595 25.9907 84.7805 26.0513C84.5459 26.2039 84.2679 26.2738 83.9903 26.2502H83.2819C83.2696 26.2561 83.2565 26.2591 83.243 26.2591C83.2295 26.2591 83.216 26.2561 83.2041 26.2502C83.1947 26.2395 83.1877 26.2269 83.1836 26.2134C83.1795 26.1998 83.1779 26.1856 83.1795 26.1715V25.9518C83.1783 25.9384 83.18 25.9248 83.184 25.912C83.1885 25.8992 83.1951 25.8873 83.2041 25.8772C83.2148 25.8679 83.227 25.8609 83.2406 25.8566C83.2537 25.8523 83.268 25.8509 83.2819 25.8524H84.0025C84.1454 25.8632 84.2879 25.83 84.412 25.7571C84.4521 25.728 84.4841 25.6893 84.5058 25.6444C84.527 25.5996 84.5373 25.55 84.5348 25.5001V24.9366C84.4337 25.0134 84.3235 25.0775 84.2073 25.1272C84.041 25.1971 83.8629 25.2323 83.6832 25.2308V25.2515ZM83.4416 24.4559C83.4371 24.5437 83.4666 24.6298 83.5235 24.6962C83.5648 24.7337 83.6136 24.7622 83.6664 24.7801C83.7192 24.7978 83.7749 24.8046 83.8306 24.7998C83.9808 24.7973 84.1291 24.762 84.2646 24.6962C84.3612 24.6504 84.4529 24.5949 84.5389 24.5305V23.2873C84.4533 23.2213 84.3616 23.1644 84.2646 23.1174C84.1295 23.0497 83.9812 23.0142 83.8306 23.0138C83.7753 23.0085 83.7196 23.0146 83.6668 23.0317C83.614 23.0487 83.5652 23.0765 83.5235 23.1133C83.4727 23.1736 83.4436 23.2496 83.4416 23.3288V24.4559ZM86.148 25.2101H85.8737C85.8598 25.2136 85.8451 25.2133 85.8311 25.2092C85.8172 25.2052 85.8049 25.1975 85.7951 25.187C85.7849 25.1765 85.7779 25.1635 85.7746 25.1494C85.771 25.1352 85.7714 25.1204 85.7755 25.1065V21.6132C85.7714 21.5992 85.771 21.5844 85.7746 21.5703C85.7779 21.5561 85.7849 21.5432 85.7951 21.5327C85.8049 21.5221 85.8172 21.5145 85.8311 21.5104C85.8451 21.5064 85.8598 21.5061 85.8737 21.5096H86.1767C86.1894 21.5082 86.2021 21.5098 86.2144 21.5141C86.2263 21.5184 86.2373 21.5253 86.2463 21.5344C86.2631 21.557 86.2705 21.5853 86.2668 21.6132V22.8563C86.3671 22.7794 86.4756 22.714 86.5903 22.6616C86.7589 22.5907 86.9399 22.5554 87.1225 22.558C87.2237 22.5497 87.3252 22.5627 87.421 22.5962C87.5168 22.6298 87.6049 22.6831 87.6794 22.7528C87.8022 22.8957 87.8653 23.0815 87.8555 23.2707V24.5388C87.8653 24.728 87.8022 24.9138 87.6794 25.0568C87.6049 25.1265 87.5168 25.1797 87.421 25.2133C87.3252 25.2468 87.2237 25.2598 87.1225 25.2515C86.9371 25.2532 86.7532 25.2165 86.5821 25.1438C86.4662 25.0933 86.3577 25.0278 86.2586 24.949V25.1065C86.2598 25.1206 86.2586 25.1349 86.2545 25.1484C86.25 25.162 86.243 25.1745 86.234 25.1852C86.2209 25.1931 86.2066 25.1976 86.1914 25.1983C86.1763 25.1991 86.1616 25.196 86.148 25.1894V25.2101ZM87.3764 24.4559V23.3288C87.3801 23.2411 87.3506 23.1552 87.2945 23.0884C87.2527 23.0516 87.2036 23.0239 87.1508 23.0068C87.0984 22.9897 87.0427 22.9836 86.9874 22.989C86.8355 22.9884 86.6852 23.0239 86.5493 23.0925C86.4539 23.1404 86.3634 23.1973 86.2791 23.2624V24.5056C86.3638 24.5692 86.4543 24.6247 86.5493 24.6714C86.6861 24.7381 86.8355 24.7735 86.9874 24.775C87.0427 24.7797 87.0988 24.773 87.1516 24.7552C87.2044 24.7374 87.2527 24.7088 87.2945 24.6714C87.3461 24.6042 87.3707 24.52 87.3641 24.4352L87.3764 24.4559ZM88.5351 23.3453V23.2376C88.5294 23.1404 88.5462 23.0431 88.5847 22.9538C88.6232 22.8645 88.6817 22.7857 88.7562 22.7237C88.9823 22.5762 89.2496 22.5078 89.5178 22.529C89.7876 22.5036 90.0575 22.5723 90.2835 22.7237C90.3551 22.7871 90.4108 22.8667 90.4464 22.9559C90.4821 23.0452 90.4964 23.1417 90.4882 23.2376V25.0775C90.4898 25.1053 90.4829 25.1329 90.4677 25.1562C90.4575 25.1652 90.446 25.172 90.4333 25.1763C90.4207 25.1806 90.4071 25.1822 90.394 25.1811H90.1238C90.1103 25.1825 90.0968 25.181 90.0841 25.1767C90.0714 25.1724 90.0599 25.1654 90.0501 25.1562C90.0333 25.1334 90.0247 25.1057 90.0255 25.0775V24.9241C89.926 25.0026 89.8175 25.068 89.7021 25.1189C89.5432 25.189 89.3716 25.2243 89.1984 25.2225C88.999 25.2345 88.8033 25.1659 88.6539 25.0319C88.5929 24.9758 88.545 24.9072 88.5122 24.8308C88.4799 24.7543 88.4639 24.6717 88.4655 24.5885V24.3316C88.4639 24.2491 88.4795 24.1673 88.5102 24.091C88.5413 24.0148 88.5871 23.9458 88.6457 23.8882C88.7951 23.7541 88.9909 23.6855 89.1903 23.6976H90.0092V23.2832C90.0132 23.2346 90.0059 23.1857 89.9883 23.1405C89.9707 23.0952 89.9424 23.0546 89.9068 23.0221C89.7844 22.9454 89.6406 22.9105 89.4973 22.9226C89.3549 22.9108 89.2124 22.9425 89.0879 23.0138C89.0506 23.0438 89.0216 23.0825 89.0031 23.1267C88.9847 23.1707 88.9769 23.2188 88.9814 23.2666C88.9814 23.3453 88.9814 23.3702 88.9569 23.3909C88.9462 23.4004 88.9339 23.4076 88.9204 23.4119C88.9073 23.4162 88.893 23.4175 88.8791 23.4158H88.6088C88.5961 23.4171 88.583 23.4156 88.5712 23.4113C88.5593 23.407 88.5482 23.4 88.5392 23.3909C88.5265 23.3713 88.5208 23.3479 88.5229 23.3246L88.5351 23.3453ZM89.3295 24.8371C89.4715 24.8354 89.6116 24.8014 89.7389 24.7377C89.836 24.6931 89.9269 24.636 90.0092 24.5678V24.0954H89.2885C89.1911 24.086 89.094 24.1158 89.0183 24.1782C88.9646 24.2446 88.9384 24.3291 88.9446 24.4144V24.5222C88.9417 24.564 88.9483 24.6059 88.9638 24.6447C88.9794 24.6835 89.0035 24.7181 89.0347 24.746C89.1194 24.7983 89.2181 24.8229 89.3172 24.8164L89.3295 24.8371Z" fill="#172C54"/>
</g>
</g>
<defs>
<clipPath id="clip0_202_4980">
<rect width="104" height="26.9353" fill="white" transform="translate(0 0.0322266)"/>
</clipPath>
</defs>
</svg>
