<svg width="70" height="70" viewBox="0 0 70 70" fill="none" xmlns="http://www.w3.org/2000/svg">
<rect width="70" height="70" rx="3" fill="#257BEB"/>
<path d="M44 29V33M44 33V37M44 33H48M44 33H40M37 27.5C37 29.9853 34.9853 32 32.5 32C30.0147 32 28 29.9853 28 27.5C28 25.0147 30.0147 23 32.5 23C34.9853 23 37 25.0147 37 27.5ZM24.0012 44.6458C24.0004 44.5973 24 44.5487 24 44.5C24 39.8056 27.8056 36 32.5 36C37.1944 36 41 39.8056 41 44.5V44.5034C41 44.5509 40.9996 44.5984 40.9988 44.6458C38.5165 46.1403 35.6086 47 32.5 47C29.3914 47 26.4835 46.1403 24.0012 44.6458Z" stroke="white" stroke-width="2.4" stroke-linecap="round" stroke-linejoin="round"/>
</svg>
