<svg width="24" height="25" viewBox="0 0 24 25" fill="none" xmlns="http://www.w3.org/2000/svg">
<path d="M20.25 4.25V8.75M20.25 4.25H15.75M20.25 4.25L14.25 10.25M17.25 22.25C8.96573 22.25 2.25 15.5343 2.25 7.25V5C2.25 3.75736 3.25736 2.75 4.5 2.75H5.87163C6.38785 2.75 6.83783 3.10133 6.96304 3.60215L8.06883 8.02533C8.17861 8.46445 8.01453 8.9266 7.65242 9.19818L6.3588 10.1684C5.98336 10.45 5.81734 10.937 5.97876 11.3777C7.19015 14.6846 9.81539 17.3098 13.1223 18.5212C13.563 18.6827 14.05 18.5166 14.3316 18.1412L15.3018 16.8476C15.5734 16.4855 16.0355 16.3214 16.4747 16.4312L20.8979 17.537C21.3987 17.6622 21.75 18.1121 21.75 18.6284V20C21.75 21.2426 20.7426 22.25 19.5 22.25H17.25Z" stroke="#BFE3FE" stroke-width="1.5" stroke-linecap="round" stroke-linejoin="round"/>
</svg>
