<svg width="57" height="56" viewBox="0 0 57 56" fill="none" xmlns="http://www.w3.org/2000/svg">
<rect x="0.625732" width="56" height="56" rx="12" fill="#257BEB"/>
<path d="M17.2507 21.875C17.2507 31.5397 25.0861 39.375 34.7507 39.375H37.3757C38.0719 39.375 38.7396 39.0984 39.2319 38.6062C39.7242 38.1139 40.0007 37.4462 40.0007 36.75V35.1493C40.0007 34.5473 39.5912 34.0223 39.0067 33.8765L33.8466 32.5862C33.3332 32.4578 32.7942 32.6503 32.4781 33.0727L31.3464 34.5812C31.0174 35.0198 30.4492 35.2135 29.9347 35.0245C28.0248 34.3223 26.2902 33.2134 24.8513 31.7744C23.4124 30.3355 22.3034 28.601 21.6012 26.691C21.4122 26.1765 21.6059 25.6083 22.0446 25.2793L23.5531 24.1477C23.9766 23.8315 24.1679 23.2913 24.0396 22.7792L22.7492 17.619C22.6782 17.3351 22.5144 17.0832 22.2838 16.9031C22.0532 16.723 21.769 16.6251 21.4764 16.625H19.8757C19.1795 16.625 18.5119 16.9016 18.0196 17.3938C17.5273 17.8861 17.2507 18.5538 17.2507 19.25V21.875Z" stroke="white" stroke-width="1.5" stroke-linecap="round" stroke-linejoin="round"/>
</svg>
