<svg width="96" height="96" viewBox="0 0 96 96" fill="none" xmlns="http://www.w3.org/2000/svg">
<rect width="96" height="96" rx="48" fill="#1E51AF"/>
<g clip-path="url(#clip0_42_2876)">
<path d="M66.075 42.8425H60.919C60.1492 41.3027 58.4216 37.8477 57.4621 35.9295C56.807 34.619 55.49 33.8051 54.0249 33.8051H34.4844C32.0254 33.8051 29.9467 35.5657 29.5418 37.9919L28.7129 42.9676C26.0253 43.5286 24 45.9158 24 48.7675V56.2987C24 57.0753 24.6296 57.7049 25.4062 57.7049H30.195C31.7254 63.6938 40.1769 63.6897 41.705 57.7049H52.7887C54.3191 63.6938 62.7707 63.6897 64.2987 57.7049H70.5938C71.3704 57.7049 72 57.0753 72 56.2987V48.7675C72 45.5004 69.342 42.8425 66.075 42.8425ZM46.3938 36.6175H54.025C54.4177 36.6175 54.771 36.8358 54.9467 37.1873C54.9468 37.1874 54.9468 37.1875 54.9468 37.1876C55.695 38.6835 56.9106 41.1145 57.7747 42.8424H46.3938V36.6175ZM32.316 38.4544C32.4937 37.39 33.4056 36.6175 34.4844 36.6175H43.5813V42.8424H31.5849L32.316 38.4544ZM35.95 59.4112C34.2338 59.4112 32.8375 58.0149 32.8375 56.2987C33.0085 52.1696 38.8922 52.1708 39.0625 56.2987C39.0625 58.015 37.6662 59.4112 35.95 59.4112ZM58.5438 59.4112C56.8275 59.4112 55.4313 58.0149 55.4313 56.2987C55.6023 52.1696 61.4859 52.1709 61.6563 56.2987C61.6563 58.015 60.26 59.4112 58.5438 59.4112ZM69.1875 48.8674H67.5812C65.7154 48.9417 65.7168 51.6063 67.5812 51.6799H69.1875V54.8924H64.3002C62.7699 48.9038 54.3153 48.9078 52.7873 54.8924H41.7064C40.1762 48.9038 31.7214 48.9078 30.1936 54.8924H26.8125V48.7675C26.8125 47.0512 28.2088 45.655 29.925 45.655H66.075C67.7913 45.655 69.1875 47.0513 69.1875 48.7675V48.8674Z" fill="white"/>
</g>
<defs>
<clipPath id="clip0_42_2876">
<rect width="48" height="48" fill="white" transform="translate(24 24)"/>
</clipPath>
</defs>
</svg>
