<svg width="96" height="96" viewBox="0 0 96 96" fill="none" xmlns="http://www.w3.org/2000/svg">
<rect width="96" height="96" rx="48" fill="#1E51AF"/>
<g clip-path="url(#clip0_42_3513)">
<path d="M70.5938 64.6687H62.9626V25.4062C62.9626 24.6296 62.333 24 61.5563 24C60.7797 24 60.1501 24.6296 60.1501 25.4062V42.7836L53.8101 28.2924C52.7569 25.8854 49.8741 24 47.2469 24H33.6907C30.8389 24 28.5188 26.32 28.5188 29.1718V48.1427C25.9744 48.4649 24 50.6415 24 53.2718V62.3092C24 65.1611 26.3201 67.4812 29.1719 67.4812H30.195C30.8281 70.0716 33.1675 72 35.95 72C38.7324 72 41.0717 70.0716 41.7048 67.4812H51.2826C51.9157 70.0716 54.2551 72 57.0376 72C59.82 72 62.1593 70.0716 62.7923 67.4812H70.5938C71.3704 67.4812 72 66.8516 72 66.075C72 65.2984 71.3704 64.6687 70.5938 64.6687ZM33.6907 26.8125H47.2469C48.7628 26.8125 50.6257 28.0309 51.2333 29.4199L59.4061 48.1H56.1138L48.9992 40.9856L50.1351 39.8497C50.6842 39.3007 50.6842 38.4101 50.1351 37.861C49.586 37.3119 48.6955 37.3119 48.1463 37.861L46.0165 39.9908C46.0163 39.991 46.0163 39.9911 46.0161 39.9913C46.0159 39.9915 46.0158 39.9916 46.0156 39.9918L43.8859 42.1216C43.3367 42.6707 43.3367 43.5611 43.8859 44.1103C44.1605 44.3849 44.5204 44.5222 44.8802 44.5222C45.2401 44.5222 45.6 44.3848 45.8745 44.1103L47.0103 42.9744L52.1362 48.1001H37.3563V37.4562C37.3563 36.6796 36.7267 36.05 35.95 36.05C35.1734 36.05 34.5438 36.6796 34.5438 37.4562V48.0999H31.3312V29.1718C31.3312 27.8708 32.3897 26.8125 33.6907 26.8125ZM26.8125 62.3093V53.2719C26.8125 51.971 27.8709 50.9125 29.1719 50.9125H60.1501L60.1499 61.0362C59.2448 60.475 58.1786 60.15 57.0376 60.15C54.2551 60.15 51.9157 62.0784 51.2826 64.6687H41.7048C41.0717 62.0784 38.7324 60.15 35.95 60.15C33.1675 60.15 30.8281 62.0784 30.195 64.6687H29.1719C27.8709 64.6687 26.8125 63.6103 26.8125 62.3093ZM35.95 69.1875C34.2346 69.1875 32.8389 67.7925 32.8376 66.0774C32.8376 66.0765 32.8377 66.0757 32.8377 66.075C32.8377 66.0742 32.8376 66.0734 32.8376 66.0726C32.8389 64.3575 34.2346 62.9625 35.95 62.9625C37.6661 62.9625 39.0623 64.3588 39.0623 66.075C39.0623 67.7912 37.666 69.1875 35.95 69.1875ZM57.0375 69.1875C55.3212 69.1875 53.925 67.7912 53.925 66.075C53.925 64.3588 55.3213 62.9625 57.0375 62.9625C58.7536 62.9625 60.1497 64.3588 60.1497 66.075C60.1497 67.7912 58.7536 69.1875 57.0375 69.1875Z" fill="white"/>
</g>
<defs>
<clipPath id="clip0_42_3513">
<rect width="48" height="48" fill="white" transform="translate(24 24)"/>
</clipPath>
</defs>
</svg>
