<svg width="96" height="96" viewBox="0 0 96 96" fill="none" xmlns="http://www.w3.org/2000/svg">
<rect width="96" height="96" rx="48" fill="#1E51AF"/>
<g clip-path="url(#clip0_42_3253)">
<path d="M70.5962 43.7462L55.0266 43.719V26.8125H59.2453C60.0219 26.8125 60.6516 26.1829 60.6516 25.4062C60.6516 24.6296 60.0219 24 59.2453 24H25.4062C24.6296 24 24 24.6296 24 25.4062V45.0331C24 45.0398 24.0009 45.0463 24.001 45.0531C24.0009 45.0599 24 45.0666 24 45.0734V67.7609C24 68.5375 24.6296 69.1672 25.4062 69.1672H26.8031V70.5938C26.8031 71.3704 27.4328 72 28.2094 72C28.986 72 29.6156 71.3704 29.6156 70.5938V69.1672H66.375V70.5938C66.375 71.3704 67.0046 72 67.7812 72C68.5579 72 69.1875 71.3704 69.1875 70.5938V69.1672H70.5938C71.3704 69.1672 72 68.5375 72 67.7609V45.1524C72 44.3768 71.3719 43.7476 70.5962 43.7462ZM26.8125 66.3547V46.4822L29.7234 46.4872V66.3547H26.8125ZM63.4641 60.67H55.0266V52.2325H63.4641V60.67ZM43.7766 60.67V52.2325H52.2141V60.67H43.7766ZM32.5359 49.42V46.4921L35.3484 46.497V49.42H32.5359ZM38.1609 46.502L40.9734 46.5068V49.42H38.1609V46.502ZM46.5891 49.42H43.7859V46.5118L46.5891 46.5167V49.42ZM55.0266 49.42V46.5314L57.8391 46.5363V49.42H55.0266ZM52.2141 49.42H49.4016V46.5216L52.2141 46.5264V49.42ZM46.5984 29.7188H43.7859V26.8125H46.5984V29.7188ZM40.9734 29.7188H38.1609V26.8125H40.9734V29.7188ZM35.3484 29.7188H32.5359V26.8125H35.3484V29.7188ZM32.5359 32.5312H46.5984V43.7042L32.5359 43.6796V32.5312ZM32.5359 52.2325H40.9641V66.3547H32.5359V52.2325ZM43.7766 63.4825H46.5891V66.3547H43.7766V63.4825ZM49.4016 63.4825H52.2141V66.3547H49.4016V63.4825ZM55.0266 63.4825H57.8391V66.3547H55.0266V63.4825ZM60.6516 63.4825H63.4641V66.3547H60.6516V63.4825ZM63.4641 49.42H60.6516V46.5413L63.4641 46.5461V49.42ZM52.2141 43.714L49.4109 43.7092V26.8125H52.2141V43.714ZM29.7234 26.8125V43.6747L26.8125 43.6696V26.8125H29.7234ZM69.1875 66.3547H66.2766V62.0763C66.2766 57.5452 66.2766 51.5919 66.2766 46.5511L69.1875 46.5563V66.3547Z" fill="white"/>
</g>
<defs>
<clipPath id="clip0_42_3253">
<rect width="48" height="48" fill="white" transform="translate(24 24)"/>
</clipPath>
</defs>
</svg>
