<svg width="96" height="96" viewBox="0 0 96 96" fill="none" xmlns="http://www.w3.org/2000/svg">
<rect width="96" height="96" rx="48" fill="#1E51AF"/>
<g clip-path="url(#clip0_42_813)">
<path d="M67.4579 24H46.5431C44.0385 24 42.001 26.0377 42.001 28.5422V42.8909L35.1534 49.7386L35.1538 46.4094C35.1528 44.0843 33.2605 42.192 30.9348 42.1911C29.8086 42.1911 28.7492 42.6302 27.9519 43.4276C27.1549 44.2245 26.7161 45.2838 26.7161 46.41V46.8955C26.7161 49.7603 26.0997 52.632 24.8841 55.4308C24.04 57.3741 23.7942 59.507 24.1732 61.5989C24.5613 63.7419 25.5832 65.6912 27.128 67.2361L28.7653 68.8734C30.7813 70.8896 33.4618 72 36.313 72C38.6477 72 40.8677 71.255 42.7024 69.8783C43.5079 71.1518 44.9278 72 46.5431 72H67.458C69.9625 72 72 69.9623 72 67.4578V28.5422C72 26.0377 69.9625 24 67.4579 24ZM46.5431 26.8125H67.458C68.4118 26.8125 69.1877 27.5885 69.1877 28.5422V29.625H44.8134V28.5422C44.8134 27.5885 45.5893 26.8125 46.5431 26.8125ZM36.313 69.1875C34.213 69.1875 32.2388 68.3697 30.754 66.8848L29.1166 65.2475C26.8169 62.9477 26.1681 59.5343 27.4636 56.5515C28.8339 53.3969 29.5285 50.1483 29.5285 46.8956V46.4101C29.5124 45.6556 30.1807 44.988 30.9343 45.0037C31.7098 45.0039 32.341 45.6352 32.3413 46.41L32.3407 53.1339C32.3406 53.7027 32.6833 54.2155 33.2086 54.4332C33.734 54.6509 34.3389 54.5307 34.7412 54.1284L48.7061 40.1631C49.2624 39.6068 50.1599 39.5756 50.7072 40.0936C50.9861 40.3578 51.1426 40.714 51.1479 41.0967C51.1531 41.4797 51.0068 41.8397 50.7361 42.1104L41.3701 51.4767L38.029 54.818C37.4798 55.3672 37.4798 56.2575 38.029 56.8067C38.3036 57.0813 38.6634 57.2186 39.0233 57.2186C39.3832 57.2186 39.743 57.0814 40.0176 56.8067L43.3587 53.4654C43.9071 52.9173 44.7991 52.9171 45.3475 53.4654C45.6131 53.7311 45.7594 54.0843 45.7594 54.4598C45.7594 54.8353 45.6131 55.1883 45.3477 55.454C45.3476 55.4541 45.3475 55.4541 45.3475 55.4542L42.0063 58.7954C41.4571 59.3446 41.4571 60.2349 42.0063 60.7841C42.2809 61.0587 42.6407 61.1961 43.0006 61.1961C43.3605 61.1961 43.7203 61.0587 43.9949 60.7842L47.3361 57.443C47.3362 57.4429 47.3363 57.4428 47.3363 57.4427C47.607 57.172 47.9687 57.0257 48.3498 57.0311C48.7325 57.0364 49.0887 57.1928 49.3528 57.4718C49.8708 58.0189 49.8397 58.9167 49.2835 59.473L41.8719 66.8848C40.3872 68.3697 38.4129 69.1875 36.313 69.1875ZM67.4579 69.1875H46.5431C45.7313 69.1875 45.0503 68.6246 44.8649 67.8692L51.2723 61.4617C52.8956 59.8384 52.9508 57.181 51.3952 55.538C50.6454 54.7461 49.6462 54.2838 48.5655 54.2248C48.5089 53.1863 48.0774 52.2178 47.3362 51.4766C46.9877 51.1282 46.5929 50.8535 46.1715 50.6526L52.7248 44.099C53.5371 43.2867 53.9757 42.2068 53.9601 41.0581C53.9444 39.9097 53.476 38.8418 52.6409 38.0511C50.9981 36.4956 48.3409 36.5506 46.7174 38.1741L44.8133 40.0782V32.4375H69.1875V67.4578C69.1876 68.4115 68.4118 69.1875 67.4579 69.1875Z" fill="white"/>
<path d="M59.3569 63.5625H54.6855C53.9089 63.5625 53.2793 64.1921 53.2793 64.9688C53.2793 65.7454 53.9089 66.375 54.6855 66.375H59.3569C60.1335 66.375 60.7632 65.7454 60.7632 64.9688C60.7632 64.1921 60.1335 63.5625 59.3569 63.5625Z" fill="white"/>
</g>
<defs>
<clipPath id="clip0_42_813">
<rect width="48" height="48" fill="white" transform="translate(24 24)"/>
</clipPath>
</defs>
</svg>
