<svg width="96" height="96" viewBox="0 0 96 96" fill="none" xmlns="http://www.w3.org/2000/svg">
<rect width="96" height="96" rx="48" fill="#1E51AF"/>
<g clip-path="url(#clip0_42_2893)">
<path d="M69.4745 69.3357L62.8256 66.0116V52.3776C64.868 52.085 66.4431 50.3247 66.4431 48.2025V42.1549C66.4431 40.0235 64.8541 38.2573 62.7989 37.976C62.3419 30.1926 55.8658 24 47.9699 24C40.0737 24 33.5977 30.1926 33.1406 37.976C31.0855 38.2573 29.4965 40.0235 29.4965 42.1549V48.2025C29.4965 50.3247 31.0715 52.085 33.1139 52.378V66.012L26.465 69.3357C25.8816 69.6276 25.5755 70.282 25.7252 70.9167C25.875 71.5517 26.4419 71.9999 27.0941 71.9999H68.8458C69.498 71.9999 70.0645 71.5517 70.2143 70.9167C70.3641 70.282 70.0579 69.6276 69.4745 69.3357ZM56.5078 62.8534V58.9925C58.248 57.2599 59.4349 54.9726 59.7777 52.4212H60.0131V64.6058L56.5078 62.8534ZM53.6953 63.5339L52.1495 69.1874H43.793L42.2442 63.5331V61.0484C43.8179 61.8654 45.6042 62.3279 47.4968 62.3279H48.4427C50.3353 62.3279 52.1213 61.8654 53.6953 61.0484V63.5339ZM57.0681 50.2628L54.3929 52.0462C53.5429 52.6131 52.5538 52.9127 51.5321 52.9127H49.1539C48.3772 52.9127 47.7477 53.5422 47.7477 54.3189C47.7477 55.0956 48.3772 55.7252 49.1539 55.7252H51.5321C53.1112 55.7252 54.6397 55.2619 55.9533 54.3863L56.4722 54.0402C55.2114 57.2427 52.0876 59.5154 48.4431 59.5154H47.4968C42.7408 59.5154 38.8718 55.6461 38.8718 50.8904V41.328C38.8718 39.6734 39.3409 38.0672 40.2283 36.6819C41.0215 35.4444 42.1113 34.433 43.3971 33.7372C43.8666 33.9862 44.7535 34.6271 45.4889 35.1584C48.2915 37.1836 52.3974 40.1502 57.0681 40.6695V50.2628ZM63.6306 42.1549V48.2025C63.6306 48.9781 62.9996 49.6087 62.2243 49.6087H59.8806V40.7486H62.2243C62.9996 40.7486 63.6306 41.3792 63.6306 42.1549ZM47.9699 26.8125C54.301 26.8125 59.5067 31.7234 59.9783 37.9358H58.4743C54.1351 37.9358 49.9233 34.8926 47.1361 32.8788C44.9538 31.3019 43.7516 30.4328 42.5321 31.0213C40.6219 31.9431 39.0066 33.3757 37.8603 35.1647C37.3048 36.0315 36.8745 36.9635 36.5731 37.9358H35.9612C36.4329 31.7234 41.6385 26.8125 47.9699 26.8125ZM32.309 48.2025V42.1549C32.309 41.3792 32.9399 40.7486 33.7152 40.7486H36.0754C36.0659 40.9412 36.0593 41.1339 36.0593 41.328V49.6087H33.7152C32.9399 49.6087 32.309 48.9781 32.309 48.2025ZM35.9264 52.4212H36.1619C36.5046 54.9726 37.6915 57.2603 39.4318 58.9925V62.8534L35.9264 64.6058V52.4212ZM39.9342 65.7465L40.8768 69.1874H33.0516L39.9342 65.7465ZM55.0653 69.1874L56.0061 65.7469L62.8879 69.1874H55.0653Z" fill="white"/>
</g>
<defs>
<clipPath id="clip0_42_2893">
<rect width="48" height="48" fill="white" transform="translate(24 24)"/>
</clipPath>
</defs>
</svg>
