<svg width="96" height="96" viewBox="0 0 96 96" fill="none" xmlns="http://www.w3.org/2000/svg">
<rect width="96" height="96" rx="48" fill="#1E51AF"/>
<path d="M71.3868 51.685L68.439 49.6718L69.2576 49.0178C69.9827 48.4386 69.9577 47.324 69.2032 46.7792L42.163 27.2515C40.9485 26.3743 39.2621 26.6023 38.3239 27.7701L29.4372 38.8313C28.4266 40.0896 28.6817 41.9435 29.9953 42.8816L36.7509 47.706L34.0387 51.5593C33.5899 52.1971 33.7462 53.0788 34.3865 53.5237L35.3532 54.1952C33.7758 55.7173 31.6603 56.5785 29.4507 56.5785H26.8125V53.5316C26.8125 52.755 26.1829 52.1254 25.4062 52.1254C24.6296 52.1254 24 52.755 24 53.5316V67.8754C24 68.652 24.6296 69.2816 25.4062 69.2816C26.1829 69.2816 26.8125 68.652 26.8125 67.8754V65.016H28.7186C33.7663 65.016 38.7013 62.8931 42.2065 58.9551L43.6131 59.9319C44.2551 60.3778 45.1377 60.2142 45.5775 59.5686L48.1252 55.8286L53.9177 59.9652C54.4289 60.3303 55.1212 60.3123 55.6127 59.9195L57.7115 58.2426L63.1687 62.1705C63.7748 62.6068 64.6159 62.493 65.0845 61.9122L71.6882 53.7295C72.2031 53.0914 72.0647 52.1479 71.3868 51.685ZM28.7186 62.2034H26.8125V59.3909H29.4506C32.5777 59.3909 35.5629 58.0944 37.6965 55.8226L39.8767 57.3368C37.0163 60.4063 32.9457 62.2034 28.7186 62.2034ZM44.0518 56.8123L37.153 52.0209L39.0397 49.3404L45.8358 54.1937L44.0518 56.8123ZM54.6873 57.0588L31.6297 40.5928L40.5164 29.5316L66.0562 47.9757L54.6873 57.0588ZM63.7314 59.1102L59.9932 56.4195L66.1407 51.5079L68.5428 53.1485L63.7314 59.1102Z" fill="white"/>
<path d="M59.25 48.0002C60.0267 48.0002 60.6563 47.3706 60.6563 46.594C60.6563 45.8173 60.0267 45.1877 59.25 45.1877C58.4733 45.1877 57.8438 45.8173 57.8438 46.594C57.8438 47.3706 58.4733 48.0002 59.25 48.0002Z" fill="white"/>
</svg>
