<svg width="48" height="49" viewBox="0 0 48 49" fill="none" xmlns="http://www.w3.org/2000/svg">
<g clip-path="url(#clip0_199_1148)">
<path d="M21.1875 17.8196C20.4109 17.8196 19.7812 18.4492 19.7812 19.2258V24.8508C19.7812 25.6275 20.4109 26.2571 21.1875 26.2571H25.4062V30.4758C25.4062 31.2525 26.0359 31.8821 26.8125 31.8821C27.5891 31.8821 28.2188 31.2525 28.2188 30.4758V19.2258C28.2188 18.4492 27.5891 17.8196 26.8125 17.8196C26.0359 17.8196 25.4062 18.4492 25.4062 19.2258V23.4446H22.5938V19.2258C22.5938 18.4492 21.9641 17.8196 21.1875 17.8196Z" fill="#1E478A"/>
<path d="M16.9688 22.0383C16.9688 19.7121 15.0763 17.8196 12.75 17.8196C10.4238 17.8196 8.5313 19.7121 8.5313 22.0383C8.5313 22.815 9.16092 23.4446 9.93755 23.4446C10.7142 23.4446 11.3438 22.815 11.3438 22.0383C11.3438 21.2629 11.9746 20.6321 12.75 20.6321C13.5255 20.6321 14.1563 21.2629 14.1563 22.0383C14.1563 22.3452 14.0595 22.6364 13.8765 22.8805L8.81255 29.6321C8.49296 30.0582 8.44149 30.6283 8.67971 31.1047C8.91792 31.5811 9.40486 31.8821 9.93755 31.8821H15.5625C16.3392 31.8821 16.9688 31.2525 16.9688 30.4758C16.9688 29.6992 16.3392 29.0696 15.5625 29.0696H12.7501L16.1265 24.568C16.6775 23.8333 16.9688 22.9585 16.9688 22.0383Z" fill="#1E478A"/>
<path d="M32.4375 17.8196C31.6609 17.8196 31.0312 18.4492 31.0312 19.2258V30.4758C31.0312 31.2525 31.6609 31.8821 32.4375 31.8821C33.2141 31.8821 33.8438 31.2525 33.8438 30.4758V27.6633C33.8438 26.8879 34.4746 26.2571 35.25 26.2571C36.0254 26.2571 36.6562 26.8879 36.6562 27.6633V30.4758C36.6562 31.2525 37.2859 31.8821 38.0625 31.8821C38.8391 31.8821 39.4688 31.2525 39.4688 30.4758V27.6633C39.4688 25.3371 37.5762 23.4446 35.25 23.4446C34.7571 23.4446 34.2839 23.5304 33.8438 23.6865V19.2258C33.8438 18.4492 33.2141 17.8196 32.4375 17.8196Z" fill="#1E478A"/>
<path d="M24 0.85083C10.7855 0.85083 0 11.6363 0 24.8508C0 25.6275 0.629625 26.2571 1.40625 26.2571H4.21875C4.99538 26.2571 5.625 25.6275 5.625 24.8508C5.625 24.0742 4.99538 23.4446 4.21875 23.4446H2.86031C3.55612 12.88 12.0292 4.40696 22.5938 3.71114V5.06958C22.5938 5.84621 23.2234 6.47583 24 6.47583C24.7766 6.47583 25.4062 5.84621 25.4062 5.06958V3.71114C35.9708 4.40696 44.4439 12.88 45.1397 23.4446H43.7812C43.0046 23.4446 42.375 24.0742 42.375 24.8508C42.375 25.6275 43.0046 26.2571 43.7812 26.2571H45.1397C44.4439 36.8217 35.9708 45.2947 25.4062 45.9905V44.6321C25.4062 43.8555 24.7766 43.2258 24 43.2258C23.2234 43.2258 22.5938 43.8555 22.5938 44.6321V45.9875C16.5014 45.564 10.7639 42.4113 7.03341 37.3699C6.61688 36.807 5.84972 36.6363 5.23378 36.9695C4.61794 37.3027 4.341 38.0383 4.58428 38.6949C4.67269 38.9337 4.76634 39.214 4.76719 39.2166L6.75591 45.1829C7.00153 45.9195 7.79766 46.318 8.53472 46.0722C9.2715 45.8265 9.66966 45.0302 9.42413 44.2934L9.20372 43.6324C13.5789 47.121 18.8157 48.8508 24 48.8508C37.2145 48.8508 48 38.0654 48 24.8508C48 11.6363 37.2145 0.85083 24 0.85083Z" fill="#1E478A"/>
</g>
<defs>
<clipPath id="clip0_199_1148">
<rect width="48" height="48" fill="white" transform="translate(0 0.85083)"/>
</clipPath>
</defs>
</svg>
